<svg width="44" height="44" viewBox="0 0 44 44" fill="none" xmlns="http://www.w3.org/2000/svg">
<circle cx="22.077" cy="22" r="15.9904" transform="rotate(-120 22.077 22)" fill="#D3C2FF"/>
<path d="M28.5822 19.0607C28.7252 18.5273 28.4086 17.9789 27.8751 17.836L19.1818 15.5066C18.6483 15.3637 18.1 15.6802 17.9571 16.2137C17.8141 16.7472 18.1307 17.2955 18.6642 17.4385L26.3916 19.509L24.321 27.2364C24.1781 27.7699 24.4947 28.3182 25.0281 28.4612C25.5616 28.6041 26.1099 28.2875 26.2529 27.7541L28.5822 19.0607ZM16.8148 25.0381L17.3148 25.9042L28.1163 19.6679L27.6163 18.8019L27.1163 17.9359L16.3148 24.1721L16.8148 25.0381Z" fill="#240046"/>
</svg>
