<?xml version="1.0" encoding="UTF-8"?>
<svg version="1.1" xmlns="http://www.w3.org/2000/svg" width="1172" height="814">
<!-- <path d="M0 0 C386.76 0 773.52 0 1172 0 C1172 268.62 1172 537.24 1172 814 C785.24 814 398.48 814 0 814 C0 545.38 0 276.76 0 0 Z " fill="#FFB8B2" transform="translate(0,0)"/> -->
<path d="M0 0 C0.86088226 0.00060425 1.72176453 0.0012085 2.60873413 0.00183105 C32.98721921 0.05954937 62.71988186 3.68982201 92.1875 11.1875 C93.15977539 11.43338867 94.13205078 11.67927734 95.13378906 11.93261719 C140.6772106 23.63036355 184.53709534 43.88713541 222.1875 72.1875 C223.03779785 72.82365234 223.03779785 72.82365234 223.90527344 73.47265625 C230.55201642 78.46236807 237.04316518 83.58149059 243.1875 89.1875 C240.80502954 90.77581364 238.81790044 91.85723866 236.22265625 92.96484375 C206.55352783 105.83841293 180.49721538 122.76945368 157.1875 145.1875 C156.69620605 145.65687988 156.20491211 146.12625977 155.69873047 146.60986328 C139.51494634 162.14085612 126.11902827 180.6326371 115.1875 200.1875 C114.7843457 200.8995459 114.38119141 201.6115918 113.96582031 202.34521484 C107.53099507 213.79287283 102.4102795 225.44876107 98.02636719 237.82324219 C97.28856936 239.90264679 96.52757472 241.97135599 95.7578125 244.0390625 C79.83538997 288.64162499 78.44769653 343.83014287 93.45556641 388.98193359 C94.27594926 391.4540279 95.04749536 393.93963893 95.82421875 396.42578125 C104.67163942 423.93569256 118.21827276 449.56080761 136.1875 472.1875 C136.868125 473.06019531 137.54875 473.93289063 138.25 474.83203125 C146.90702027 485.7010475 156.36359717 496.42880521 167.1875 505.1875 C168.35876393 506.16974952 169.52925527 507.15292062 170.69921875 508.13671875 C179.47995532 515.46356194 188.4632351 522.16749283 198.1875 528.1875 C198.89712891 528.62803711 199.60675781 529.06857422 200.33789062 529.52246094 C236.67277292 551.83974479 275.91590111 562.44332813 318.1875 566.1875 C316.5411439 570.50219898 314.39322239 574.18694122 311.8125 578 C311.37478271 578.6501709 310.93706543 579.3003418 310.48608398 579.97021484 C302.10282997 592.29670862 292.96149457 603.94114087 283.1875 615.1875 C282.61 615.86554687 282.0325 616.54359375 281.4375 617.2421875 C265.40677942 635.91797698 247.8722636 652.4239273 228.1875 667.1875 C345.9975 667.5175 463.8075 667.8475 585.1875 668.1875 C585.1875 705.4775 585.1875 742.7675 585.1875 781.1875 C198.4275 781.1875 -188.3325 781.1875 -586.8125 781.1875 C-586.8125 743.8975 -586.8125 706.6075 -586.8125 668.1875 C-562.619375 667.7234375 -562.619375 667.7234375 -537.9375 667.25 C-532.86004395 667.11343994 -527.78258789 666.97687988 -522.55126953 666.83618164 C-516.31225586 666.76843262 -516.31225586 666.76843262 -513.38400269 666.75584412 C-511.35477247 666.73292716 -509.32573691 666.68040228 -507.29782104 666.60386658 C-490.61719227 666.0062345 -490.61719227 666.0062345 -485.96852875 669.62159348 C-482.826023 673.12257299 -480.80018223 677.01679547 -478.82827377 681.25517082 C-477.10854562 684.52664818 -474.7373928 687.23151377 -472.3125 690 C-471.82543516 690.55997901 -471.33837032 691.11995802 -470.83654594 691.69690609 C-451.08084932 714.2404078 -425.63264052 730.05795877 -396.8125 738.1875 C-396.09271973 738.39922852 -395.37293945 738.61095703 -394.63134766 738.82910156 C-358.44280972 749.08509412 -316.37522522 741.95343575 -283.8125 724.1875 C-275.25611164 719.2888375 -267.28186316 713.62660617 -259.8125 707.1875 C-258.36230469 705.93839844 -258.36230469 705.93839844 -256.8828125 704.6640625 C-240.2543511 690.03973471 -228.60462654 672.47493843 -219.74951172 652.31640625 C-218.960588 650.52395839 -218.14186392 648.74466937 -217.31640625 646.96875 C-210.22479297 630.53211362 -208.34009532 612.71349877 -208.375 595 C-208.37486908 594.3136145 -208.37473816 593.627229 -208.37460327 592.92004395 C-208.41778399 580.33842842 -209.71996125 568.03689574 -213 555.875 C-213.21430664 555.07795654 -213.42861328 554.28091309 -213.64941406 553.4597168 C-220.63732786 528.48558499 -234.0454242 507.85382964 -251.8125 489.1875 C-252.40546875 488.54167969 -252.9984375 487.89585937 -253.609375 487.23046875 C-280.67495067 458.6240311 -321.26720018 446.52115571 -359.5 445.265625 C-360.593125 445.23984375 -361.68625 445.2140625 -362.8125 445.1875 C-367.95249136 421.07911414 -370.08816754 397.42629049 -370.125 372.8125 C-370.12858521 371.85393097 -370.13217041 370.89536194 -370.13586426 369.90774536 C-370.17599166 349.96848291 -368.52321304 330.34321533 -365.1875 310.6875 C-365.06066833 309.9307901 -364.93383667 309.1740802 -364.80316162 308.3944397 C-359.63929625 277.90574446 -350.50688442 248.38181114 -337.8125 220.1875 C-337.41724121 219.30658691 -337.02198242 218.42567383 -336.61474609 217.51806641 C-324.21313265 190.14218997 -308.56383863 164.66606685 -289.8125 141.1875 C-289.07644531 140.25808594 -288.34039062 139.32867187 -287.58203125 138.37109375 C-282.38344375 131.90276276 -276.86153326 125.77371114 -271.2109375 119.70361328 C-269.83341995 118.21018032 -268.47650323 116.70057709 -267.125 115.18359375 C-260.43471093 107.70076087 -253.32047929 100.84584653 -245.8125 94.1875 C-245.25691406 93.6925 -244.70132812 93.1975 -244.12890625 92.6875 C-223.2853585 74.20269091 -200.16516606 58.66247045 -175.8125 45.1875 C-175.06887207 44.77048828 -174.32524414 44.35347656 -173.55908203 43.92382812 C-143.08647943 26.91277803 -109.85767266 15.50020682 -75.8125 8.1875 C-74.51143311 7.89818604 -74.51143311 7.89818604 -73.18408203 7.60302734 C-49.07299319 2.25278186 -24.66696203 -0.03204928 0 0 Z " fill="#EBF387" transform="translate(586.8125,32.8125)"/>
<path d="M0 0 C0.69077637 0.14244141 1.38155273 0.28488281 2.09326172 0.43164062 C23.03539885 4.81843505 43.97157707 11.10866804 63 21 C64.34722367 21.67144158 65.69490158 22.3419723 67.04296875 23.01171875 C86.52236804 32.84565184 104.39414111 45.55035814 120.2890625 60.4765625 C122.54255176 62.57419083 124.83340164 64.5805911 127.1875 66.5625 C131.88947866 70.66586947 135.95839301 75.25383394 140 80 C140.44327637 80.52029785 140.88655273 81.0405957 141.34326172 81.57666016 C167.43239809 112.47862015 185.8061429 148.51971571 194.546875 188.0222168 C195.00204106 190.00890876 195.50203013 191.97978381 196.01171875 193.953125 C207.56060307 240.12069889 199.78403901 292.59051702 182 336 C181.54222168 337.11979248 181.54222168 337.11979248 181.07519531 338.26220703 C169.10068364 367.14373647 151.62241386 392.51756304 130 415 C129.29593018 415.73694092 129.29593018 415.73694092 128.57763672 416.48876953 C98.95613092 447.35531235 59.91388261 468.5731088 19 480 C17.78352783 480.34659668 17.78352783 480.34659668 16.54248047 480.70019531 C-16.79356239 490.09801502 -55.98259256 492.28527031 -90 485 C-91.46928955 484.69400879 -91.46928955 484.69400879 -92.96826172 484.38183594 C-131.55740983 476.17036165 -167.04736775 460.67685682 -198 436 C-198.94488281 435.26652344 -199.88976562 434.53304688 -200.86328125 433.77734375 C-206.56544294 429.25785264 -211.92490421 424.38981468 -217.25 419.4375 C-218.24290039 418.51747192 -218.24290039 418.51747192 -219.25585938 417.57885742 C-223.80972894 413.29276178 -227.96717235 408.77688963 -232 404 C-232.52964355 403.37649658 -233.05928711 402.75299316 -233.60498047 402.1105957 C-253.39017908 378.62605082 -268.29321842 352.16258356 -278.8125 323.3125 C-279.17351807 322.32822021 -279.53453613 321.34394043 -279.90649414 320.32983398 C-293.38269945 282.27513476 -295.92476219 239.66062124 -289 200 C-288.83371094 199.04561035 -288.66742187 198.0912207 -288.49609375 197.10791016 C-279.72053559 148.83421477 -255.87355688 105.17889626 -222 70 C-221.49823242 69.47631836 -220.99646484 68.95263672 -220.47949219 68.41308594 C-204.5690118 51.88869634 -185.97375222 38.23489869 -166 27 C-165.40687012 26.66162109 -164.81374023 26.32324219 -164.20263672 25.97460938 C-115.64174269 -1.57879185 -54.74090781 -11.66720712 0 0 Z " fill="#D0C2FA" transform="translate(962,111)"/>
<path d="M0 0 C24.193125 -0.4640625 24.193125 -0.4640625 48.875 -0.9375 C56.49118408 -1.14234009 56.49118408 -1.14234009 64.26123047 -1.35131836 C70.50024414 -1.41906738 70.50024414 -1.41906738 73.42849731 -1.43165588 C75.45772753 -1.45457284 77.48676309 -1.50709772 79.51467896 -1.58363342 C96.19530773 -2.1812655 96.19530773 -2.1812655 100.84397125 1.43409348 C103.986477 4.93507299 106.01231777 8.82929547 107.98422623 13.06767082 C109.70395438 16.33914818 112.0751072 19.04401377 114.5 21.8125 C115.23059726 22.65246851 115.23059726 22.65246851 115.97595406 23.50940609 C135.73165068 46.0529078 161.17985948 61.87045877 190 70 C190.71978027 70.21172852 191.43956055 70.42345703 192.18115234 70.64160156 C228.36969028 80.89759412 270.43727478 73.76593575 303 56 C311.55638836 51.1013375 319.53063684 45.43910617 327 39 C327.96679688 38.16726563 328.93359375 37.33453125 329.9296875 36.4765625 C340.78820966 26.92675609 349.23638399 16.05073785 357.06640625 3.95703125 C359 1 359 1 360 0 C363.66092021 -0.62128755 364.99526244 -0.0030164 368.171875 2.01953125 C369.37199523 2.94094657 370.56425078 3.87266301 371.75 4.8125 C373.09489106 5.83437868 374.44265147 6.85248989 375.79296875 7.8671875 C376.48825684 8.39022461 377.18354492 8.91326172 377.89990234 9.45214844 C405.8095023 30.02258133 438.39696514 44.73809338 471 56 C471.84159668 56.29600098 472.68319336 56.59200195 473.55029297 56.89697266 C498.31306792 65.54023873 523.9930004 70.18971982 550 73 C551.04317383 73.11714355 552.08634766 73.23428711 553.16113281 73.35498047 C605.2191953 79.0517408 657.94912471 71.87443613 707.5 55.375 C708.46163055 55.05502045 708.46163055 55.05502045 709.44268799 54.72857666 C726.96497211 48.86618484 743.79306735 41.48852589 760.17333984 32.95019531 C761.99128925 32.00453118 763.81729872 31.07601145 765.64453125 30.1484375 C780.2665387 22.63556933 794.05108974 13.65565446 807.3125 3.9609375 C811.63037599 0.81039426 813.64013001 -0.24981518 818.97577953 -0.24609566 C820.23229169 -0.25007775 821.48880385 -0.25405985 822.78339213 -0.25816262 C824.18552611 -0.25245615 825.58765935 -0.24656495 826.98979187 -0.24050903 C828.47318512 -0.24138068 829.95657806 -0.2431309 831.43996936 -0.24568737 C835.52639548 -0.25017297 839.61271735 -0.24214063 843.69913018 -0.23213124 C848.1019816 -0.22351645 852.50482685 -0.2264155 856.90768433 -0.22793579 C864.53931261 -0.22898589 872.17090677 -0.22269622 879.80252647 -0.21146011 C890.83664371 -0.19522502 901.87074439 -0.18999915 912.90487228 -0.18748413 C930.80581288 -0.1831039 948.70673529 -0.16978589 966.60766602 -0.15087891 C983.99959217 -0.1325286 1001.39151339 -0.11836794 1018.78344727 -0.10986328 C1020.39076213 -0.10907511 1020.39076213 -0.10907511 1022.030548 -0.10827102 C1027.40601764 -0.10566099 1032.78148733 -0.10313357 1038.15695703 -0.10064721 C1082.77132085 -0.07990448 1127.38565102 -0.04302922 1172 0 C1172 37.29 1172 74.58 1172 113 C785.24 113 398.48 113 0 113 C0 75.71 0 38.42 0 0 Z " fill="#FFB8B2" transform="translate(0,701)"/>
<path d="M0 0 C3.99696233 3.42273811 7.83619632 7.00042518 11.61474609 10.66162109 C12.80926144 11.81571576 14.02212082 12.95076858 15.23828125 14.08203125 C33.58741643 31.54864289 45.94958944 55.62213221 52 80 C52.28617187 81.04929687 52.57234375 82.09859375 52.8671875 83.1796875 C61.29687525 114.7308045 56.73451139 150.76440058 43 180 C42.48179687 181.1127832 42.48179687 181.1127832 41.953125 182.24804688 C25.30706002 217.31037404 -5.62167204 244.73630527 -42.0168457 257.98413086 C-59.42326758 264.07373638 -76.58082566 266.44532714 -94.9375 266.4375 C-96.07528397 266.43860275 -96.07528397 266.43860275 -97.23605347 266.43972778 C-117.68203182 266.38804581 -136.34849163 262.43180615 -155 254 C-155.67434082 253.70254883 -156.34868164 253.40509766 -157.04345703 253.09863281 C-173.81708539 245.60859842 -187.92994216 234.78877969 -201 222 C-201.66128906 221.38898438 -202.32257813 220.77796875 -203.00390625 220.1484375 C-229.80883977 194.89831451 -242.96626074 155.99351136 -244.09375 120.0078125 C-244.12565862 117.00042524 -244.08425424 114.00634448 -244 111 C-243.97164063 109.95714844 -243.94328125 108.91429687 -243.9140625 107.83984375 C-242.44396275 77.91281308 -231.11073677 48.11226288 -212 25 C-211.30648437 24.09507812 -210.61296875 23.19015625 -209.8984375 22.2578125 C-189.54769471 -3.86514097 -159.04821763 -21.58773067 -127 -29 C-125.73285156 -29.29777344 -124.46570313 -29.59554688 -123.16015625 -29.90234375 C-80.86300112 -38.8359671 -33.41672209 -27.43813792 0 0 Z " fill="#C0DBFB" transform="translate(323,510)"/>
</svg>
