<svg width="18" height="17" viewBox="0 0 18 17" fill="none" xmlns="http://www.w3.org/2000/svg">
<path fill-rule="evenodd" clip-rule="evenodd" d="M11.8991 0.552233C12.169 -0.134557 13.1392 -0.134558 13.4091 0.552232L13.7622 1.45087L14.657 1.80511C15.3413 2.07597 15.3413 3.04615 14.657 3.31701L13.7622 3.67125L13.4091 4.56989C13.1392 5.25668 12.169 5.25668 11.8991 4.56989L11.546 3.67125L10.6511 3.31701C9.96689 3.04615 9.96689 2.07597 10.6511 1.80511L11.546 1.45087L11.8991 0.552233ZM12.6541 0.886834L12.9963 1.75761C13.0785 1.96682 13.2437 2.13295 13.4531 2.21583L14.3252 2.56106L13.4531 2.90629C13.2437 2.98917 13.0785 3.1553 12.9963 3.36451L12.6541 4.23529L12.3119 3.36451C12.2297 3.1553 12.0645 2.98917 11.8551 2.90629L10.983 2.56106L11.8551 2.21583C12.0645 2.13295 12.2297 1.96682 12.3119 1.75761L12.6541 0.886834Z" fill="black"/>
<path fill-rule="evenodd" clip-rule="evenodd" d="M1.73432 1.53391C2.90499 0.363249 4.80301 0.363249 5.97367 1.53391L16.0665 11.6267C17.2371 12.7974 17.2371 14.6954 16.0665 15.8661C14.8958 17.0367 12.9978 17.0367 11.8271 15.8661L1.73432 5.77326C0.563657 4.6026 0.563657 2.70458 1.73432 1.53391ZM5.09859 2.40899C4.41122 1.72162 3.29677 1.72162 2.6094 2.40899C1.92203 3.09636 1.92203 4.21081 2.6094 4.89818L3.91814 6.20692L6.40733 3.71773L5.09859 2.40899ZM12.7022 14.991L4.79322 7.082L7.28241 4.59281L15.1914 12.5018C15.8788 13.1892 15.8788 14.3036 15.1914 14.991C14.504 15.6784 13.3896 15.6784 12.7022 14.991Z" fill="black"/>
<path fill-rule="evenodd" clip-rule="evenodd" d="M16.5996 6.18083C16.3297 5.49404 15.3595 5.49404 15.0897 6.18083L14.9622 6.50529L14.6393 6.63308C13.9551 6.90395 13.9551 7.87413 14.6393 8.14499L14.9622 8.27278L15.0897 8.59724C15.3595 9.28403 16.3297 9.28403 16.5996 8.59724L16.7271 8.27278L17.0499 8.14499C17.7342 7.87413 17.7342 6.90395 17.0499 6.63308L16.7271 6.50529L16.5996 6.18083ZM15.8446 6.51543L15.7281 6.81204C15.6459 7.02125 15.4807 7.18737 15.2713 7.27026L14.9712 7.38904L15.2713 7.50782C15.4807 7.5907 15.6459 7.75682 15.7281 7.96603L15.8446 8.26264L15.9612 7.96603C16.0434 7.75682 16.2086 7.5907 16.418 7.50782L16.718 7.38904L16.418 7.27026C16.2086 7.18737 16.0434 7.02125 15.9612 6.81204L15.8446 6.51543Z" fill="black"/>
<path fill-rule="evenodd" clip-rule="evenodd" d="M2.85112 11.2777C3.12099 10.5909 4.09118 10.5909 4.36105 11.2777L4.48854 11.6021L4.81136 11.7299C5.49561 12.0008 5.49561 12.971 4.81136 13.2418L4.48854 13.3696L4.36105 13.6941C4.09118 14.3809 3.12099 14.3809 2.85112 13.6941L2.72362 13.3696L2.40081 13.2418C1.71655 12.971 1.71655 12.0008 2.40081 11.7299L2.72362 11.6021L2.85112 11.2777ZM3.48953 11.9089L3.60608 11.6123L3.72263 11.9089C3.80484 12.1181 3.97006 12.2842 4.17943 12.3671L4.47949 12.4859L4.17943 12.6047C3.97006 12.6875 3.80484 12.8537 3.72263 13.0629L3.60608 13.3595L3.48953 13.0629C3.40733 12.8537 3.24211 12.6875 3.03273 12.6047L2.73267 12.4859L3.03273 12.3671C3.24211 12.2842 3.40733 12.1181 3.48953 11.9089Z" fill="black"/>
</svg>
