<svg version="1.1" id="Layer_1" xmlns="http://www.w3.org/2000/svg" xmlns:xlink="http://www.w3.org/1999/xlink" x="0px" y="0px"
	 width="100%" viewBox="0 0 1145 1080" enable-background="new 0 0 1145 1080" xml:space="preserve">
<path fill="#EAF475" opacity="1.000000" stroke="none" 
	d="
M1146.000000,193.000000 
	C1146.000000,488.901215 1146.000000,784.802429 1146.000000,1081.000000 
	C1023.306641,1081.000000 900.613037,1081.000000 777.460327,1080.531372 
	C777.001648,1019.142395 777.018433,958.222046 776.923096,897.301819 
	C776.920288,895.487854 775.741272,893.675659 775.018677,891.543518 
	C761.996521,880.079956 749.155212,868.830505 736.115601,857.815735 
	C716.227966,841.016052 696.131165,824.463745 676.256348,807.648987 
	C655.238220,789.866943 634.361206,771.917847 613.462341,753.995300 
	C610.492981,751.448914 607.748596,748.640198 604.938232,745.489990 
	C605.233887,737.229370 605.569946,729.433472 605.732727,721.633911 
	C606.096741,704.191284 606.427673,686.747620 606.648010,669.302795 
	C606.699768,665.200623 606.259644,661.092163 606.096130,656.541077 
	C606.348572,648.360474 606.550720,640.625427 606.828613,632.437988 
	C607.164185,622.505737 607.616821,613.026428 607.651245,603.545715 
	C607.824585,555.887329 607.922241,508.228638 607.978455,460.570007 
	C608.011230,432.740723 607.916443,404.911346 608.171509,376.766876 
	C620.541931,375.986664 632.616394,375.334503 644.698914,375.096100 
	C668.606567,374.624359 692.518494,374.359863 716.429199,374.049133 
	C745.160278,373.675751 773.891968,373.345123 802.623230,372.985260 
	C803.450317,372.974915 804.275757,372.842987 805.497986,372.738708 
	C806.263794,370.878967 806.954102,369.048798 806.956848,367.217560 
	C807.045044,309.505798 807.066406,251.793900 807.327881,194.040222 
	C807.557861,193.998413 808.021240,193.936523 808.486816,193.966049 
	C919.273560,193.999008 1029.594727,194.007080 1139.916016,193.963547 
	C1141.640381,193.962860 1143.364380,193.327164 1145.316406,192.992188 
	C1145.544312,192.996567 1146.000000,193.000000 1146.000000,193.000000 
z"/>
<path fill="#EAF475" opacity="1.000000" stroke="none" 
	d="
M1146.000000,192.542053 
	C1146.000000,193.000000 1145.544312,192.996567 1145.024170,192.881134 
	C1143.656982,192.185059 1142.810059,191.604416 1141.785156,190.746429 
	C1119.636475,172.067810 1097.696777,153.629425 1075.687134,135.274872 
	C1049.974976,113.832603 1024.211914,92.451180 998.451721,71.066566 
	C977.156006,53.388008 955.857422,35.712723 934.500000,18.108850 
	C930.188904,14.555387 925.608215,11.328979 921.017212,7.729364 
	C920.590881,7.328740 920.299194,7.150553 920.005371,6.988172 
	C920.003296,7.003979 920.028076,6.983101 919.871094,6.673038 
	C917.236145,2.982469 913.938904,1.904232 909.748413,1.920163 
	C877.107971,2.044255 844.466919,1.982808 811.826050,1.990066 
	C732.222778,2.007767 652.619568,2.031596 572.620911,2.035347 
	C571.439697,2.089811 570.653931,2.161887 569.486023,2.285393 
	C568.736816,4.016944 568.050415,5.696760 568.048767,7.377236 
	C567.992432,66.203979 567.993225,125.030785 568.034729,183.857544 
	C568.035950,185.615875 568.559937,187.373840 568.876343,189.429886 
	C568.998352,190.118591 569.084167,190.509354 569.107178,191.250977 
	C568.693542,192.422287 568.342773,193.242752 567.524902,194.036789 
	C503.038574,194.034210 439.019379,194.058044 374.620361,194.059387 
	C373.480713,194.060059 372.720886,194.083221 371.645020,194.368088 
	C371.218475,196.612991 371.013062,198.596130 371.011414,200.579422 
	C370.964325,257.701843 370.937683,314.824280 370.589294,371.966217 
	C369.846710,372.017517 369.422577,372.049316 368.530945,372.048340 
	C246.279480,372.015564 124.495483,372.015564 2.711482,372.015564 
	C2.598046,372.433929 2.484609,372.852295 2.371173,373.270660 
	C4.224432,374.565460 6.077692,375.860229 7.990289,377.489136 
	C8.300007,378.249115 8.459607,378.780365 8.813910,379.085632 
	C20.123196,388.830536 31.482113,398.518066 42.766846,408.291199 
	C51.674683,416.005859 60.431839,423.895081 69.368942,431.575226 
	C81.946541,442.383789 94.694168,452.994843 107.247017,463.831757 
	C118.931465,473.918945 130.420166,484.232544 142.059433,494.372559 
	C159.324753,509.413940 176.623840,524.416809 193.955215,539.381958 
	C201.981354,546.312378 210.117615,553.115112 218.188217,560.445374 
	C217.236557,624.170959 216.300613,687.426880 215.363419,750.768188 
	C218.818329,750.953796 221.798859,751.113953 224.876282,751.590332 
	C230.498047,756.628601 235.968033,761.416748 241.558578,766.059814 
	C255.471329,777.614502 269.370514,789.187317 283.403656,800.594788 
	C297.820862,812.314453 312.454895,823.767334 326.878601,835.479065 
	C350.052673,854.295837 373.131744,873.229614 396.219543,892.573730 
	C396.196014,953.679749 396.203918,1014.325867 396.132935,1075.301758 
	C396.291412,1076.454712 396.528809,1077.278076 396.808960,1078.462646 
	C396.901154,1079.549194 396.950562,1080.274658 397.000000,1081.000000 
	C265.019531,1081.000000 133.039062,1081.000000 1.029292,1081.000000 
	C1.029292,721.072815 1.029292,361.145569 1.029292,1.109179 
	C382.666656,1.109179 764.333313,1.109179 1146.000000,1.110679 
	C1146.000000,64.769485 1146.000000,128.426804 1146.000000,192.542053 
z"/>
<path fill="#B198F4" opacity="1.000000" stroke="none" 
	d="
M397.468658,1081.000000 
	C396.950562,1080.274658 396.901154,1079.549194 396.881866,1078.129395 
	C396.678619,1076.614014 396.445221,1075.793091 396.211853,1074.972046 
	C396.203918,1014.325867 396.196014,953.679749 396.660645,892.540649 
	C520.460999,892.031006 643.788757,892.015137 767.116577,891.992004 
	C769.781250,891.991455 772.445984,891.907593 775.110657,891.862671 
	C775.741272,893.675659 776.920288,895.487854 776.923096,897.301819 
	C777.018433,958.222046 777.001648,1019.142395 777.000610,1080.531372 
	C650.645752,1081.000000 524.291565,1081.000000 397.468658,1081.000000 
M602.369324,988.451172 
	C602.248962,996.633057 602.248962,996.633057 606.313599,996.603149 
	C606.313599,990.711304 606.313599,984.797913 606.313599,979.116272 
	C608.930847,979.963135 611.162537,980.685303 614.054688,981.621094 
	C614.054688,986.424255 614.054688,991.643433 614.054688,997.037964 
	C615.480164,996.918762 616.984985,996.926514 617.001831,996.772156 
	C617.564392,991.605347 617.985046,986.423157 618.423645,981.275818 
	C620.855652,980.758484 623.170105,980.266113 626.747986,979.504944 
	C628.289429,984.621216 629.715027,989.750061 631.443298,994.774719 
	C631.815430,995.856384 633.280151,996.562317 633.450195,996.717773 
	C636.384216,989.804260 638.961670,983.731018 641.632019,977.438660 
	C635.521118,976.119873 636.806213,983.351257 632.855103,985.108337 
	C631.344299,980.272034 628.205627,977.733154 622.957520,977.216553 
	C616.556458,976.586365 610.231750,978.388977 603.850464,977.375061 
	C603.493286,977.318298 602.481140,979.059631 602.404480,980.014771 
	C602.205688,982.491150 602.359070,984.995850 602.369324,988.451172 
M577.380615,981.876099 
	C576.017395,980.311768 574.654175,978.747437 573.290833,977.183044 
	C571.996521,978.650635 570.242188,979.917053 569.495605,981.624146 
	C567.403564,986.408447 565.727417,991.374634 564.202576,995.430359 
	C562.078552,994.717651 560.516541,993.655640 559.086670,993.810852 
	C554.059448,994.356750 552.641357,992.139160 553.207520,987.506104 
	C553.528503,984.879883 553.403931,982.169495 553.173584,979.523621 
	C553.103455,978.717651 552.012512,978.000610 551.389099,977.242920 
	C550.773193,977.862366 549.636963,978.469727 549.622253,979.103088 
	C549.485413,985.004578 549.541260,990.910522 549.541260,997.036499 
	C553.478394,997.036499 556.638306,997.146912 559.786621,997.003113 
	C562.520203,996.878174 566.043335,997.443298 567.811951,995.991272 
	C572.558899,992.093872 574.456970,991.796448 578.912659,996.156006 
	C579.651672,996.879089 581.150513,996.825500 583.126770,997.351257 
	C581.100525,991.821655 579.405945,987.196899 577.380615,981.876099 
M586.795410,977.227966 
	C586.216431,977.692505 585.142273,978.147827 585.133423,978.622986 
	C585.019714,984.713196 585.058411,990.806213 585.058411,996.898560 
	C585.519775,997.111755 585.981079,997.324890 586.442444,997.538086 
	C587.214783,996.533325 588.128235,995.604797 588.723022,994.504089 
	C589.430237,993.195435 589.863586,991.738953 590.415649,990.346497 
	C591.744446,991.386414 593.321106,992.229309 594.342346,993.513794 
	C595.764343,995.302490 596.287598,998.319702 599.763062,996.343262 
	C598.646545,994.217896 597.584534,992.196228 596.522522,990.174561 
	C597.068604,990.192871 597.614685,990.211121 598.160767,990.229431 
	C598.642212,987.233154 599.995850,984.047119 599.395142,981.286316 
	C598.553040,977.416260 594.612488,977.253784 591.196838,977.180542 
	C590.032043,977.155579 588.865845,977.191345 586.795410,977.227966 
M544.430786,996.005432 
	C545.410645,994.432434 546.390503,992.859375 547.370361,991.286377 
	C547.260864,990.863098 547.151306,990.439819 547.041748,990.016541 
	C541.857666,991.666870 533.947205,999.225281 534.238403,986.948364 
	C534.525574,974.837524 542.249390,983.410400 547.223450,984.259583 
	C546.638000,979.421387 544.126282,977.438049 540.291870,977.076538 
	C536.363892,976.706299 532.938965,977.936523 531.189453,981.728638 
	C529.273071,985.882446 529.174011,990.212585 532.066345,993.973511 
	C535.156372,997.991516 539.354065,998.004883 544.430786,996.005432 
z"/>
<path fill="#B198F4" opacity="1.000000" stroke="none" 
	d="
M224.779404,751.274048 
	C221.798859,751.113953 218.818329,750.953796 215.363419,750.768188 
	C216.300613,687.426880 217.236557,624.170959 218.543396,560.262817 
	C220.875320,559.406067 222.836273,559.023010 224.797318,559.022522 
	C349.379547,558.994751 473.961761,558.996887 598.544006,559.005554 
	C601.039490,559.005737 603.534973,559.112610 606.020813,559.627563 
	C606.007690,582.764465 605.989197,605.443481 606.033264,628.122375 
	C606.036377,629.712158 606.502136,631.301086 606.752808,632.890381 
	C606.550720,640.625427 606.348572,648.360474 605.788330,656.828857 
	C604.952698,673.475525 604.385986,689.387024 604.033081,705.303162 
	C603.837524,714.121582 604.216492,722.955444 603.912781,731.767761 
	C603.749329,736.508362 602.691223,741.218201 601.566162,745.961426 
	C587.469543,746.311646 573.844910,746.728882 560.217163,746.953979 
	C536.095459,747.352478 511.972015,747.642395 487.849060,747.962646 
	C462.060059,748.305115 436.271515,748.703064 410.481537,748.946594 
	C367.198456,749.355347 323.913940,749.607239 280.631073,750.035889 
	C262.671539,750.213745 244.714783,750.674316 226.757019,751.019592 
	C226.096420,751.032227 225.438538,751.186035 224.779404,751.274048 
M430.905792,648.352783 
	C430.905792,648.352783 430.851685,648.559326 430.851685,648.559326 
	C430.851685,648.559326 431.074951,648.734192 430.984192,649.698792 
	C430.984192,654.773132 430.984192,659.847473 430.984192,664.921753 
	C431.472870,665.135925 431.961548,665.350037 432.450195,665.564148 
	C433.238556,664.577759 434.658264,663.622314 434.708282,662.599792 
	C434.951050,657.636658 434.935883,652.651062 434.727142,647.685303 
	C434.691345,646.834412 433.274902,646.041504 432.496277,645.221863 
	C432.017120,646.225647 431.537964,647.229431 430.905792,648.352783 
M467.742188,660.945129 
	C469.255890,663.435852 470.446686,666.553162 474.704010,664.294434 
	C474.704010,658.895203 474.835266,653.418518 474.593048,647.958435 
	C474.544708,646.868896 473.069794,645.842651 472.252716,644.787292 
	C471.838806,645.056091 471.424866,645.324890 471.010956,645.593689 
	C470.763489,648.905212 470.515991,652.216675 470.255371,655.703857 
	C464.636719,653.591675 465.824066,644.883667 458.056946,645.303223 
	C458.056946,651.274536 457.916260,656.903931 458.190277,662.513000 
	C458.238007,663.490295 460.033997,664.382263 461.022522,665.313599 
	C461.359711,664.953552 461.696869,664.593445 462.034027,664.233398 
	C462.034027,662.577026 462.034027,660.920715 462.034027,659.264343 
	C462.034027,657.710144 462.034027,656.155945 462.034027,654.601807 
	C462.489655,654.491577 462.945282,654.381348 463.400909,654.271118 
	C464.700806,656.291748 466.000702,658.312317 467.742188,660.945129 
M450.763367,664.379089 
	C451.852722,663.383301 453.232727,662.567017 453.978729,661.359192 
	C456.567047,657.168518 456.603271,652.810242 453.745880,648.741577 
	C451.107758,644.985046 447.391449,644.243469 443.132721,645.665466 
	C438.358307,647.259521 437.136932,651.192078 437.106628,655.506470 
	C437.054962,662.864319 441.682343,666.017822 450.763367,664.379089 
M395.188293,657.894592 
	C397.560120,664.019104 400.282166,665.905334 405.821442,665.180054 
	C409.501068,664.698181 411.739166,662.835144 411.923218,657.605225 
	C409.987213,658.843994 408.727234,659.482117 407.668213,660.362061 
	C405.277435,662.348450 402.946198,662.698120 400.653839,660.341858 
	C398.367004,657.991272 398.298981,652.662170 400.585327,650.220947 
	C402.780060,647.877502 405.131500,648.130859 407.568176,650.033203 
	C408.746826,650.953308 410.140991,651.597351 412.242676,652.843872 
	C411.739624,647.140869 408.924316,645.478027 405.184448,645.065430 
	C398.597412,644.338745 394.957520,648.734314 395.188293,657.894592 
M389.524414,650.800171 
	C388.990723,649.406982 388.787872,647.174927 387.850525,646.805176 
	C386.190735,646.150635 382.697266,646.017029 382.383942,646.728333 
	C379.826294,652.534119 377.827484,658.586060 375.268097,665.639893 
	C379.349579,663.737549 382.233276,661.357483 385.136261,661.333679 
	C388.002045,661.310181 390.887360,663.669739 394.795441,665.454956 
	C392.829834,659.906189 391.340332,655.701355 389.524414,650.800171 
M424.229553,645.140320 
	C422.570404,645.154358 420.867157,644.936462 419.263275,645.241272 
	C417.260559,645.621826 415.339630,646.432739 413.383362,647.057800 
	C415.092072,647.916016 416.800812,648.774231 419.058533,649.908142 
	C419.058533,653.620972 418.877075,657.924683 419.180328,662.193970 
	C419.260712,663.325317 420.832458,664.350708 421.719421,665.424744 
	C422.174011,665.125793 422.628601,664.826782 423.083191,664.527832 
	C423.083191,659.431213 423.083191,654.334656 423.083191,649.919922 
	C425.395874,648.814514 427.138031,647.981812 428.880188,647.149170 
	C427.628998,646.484192 426.377838,645.819214 424.229553,645.140320 
z"/>
<path fill="#D4C2FF" opacity="1.000000" stroke="none" 
	d="
M569.868103,2.233961 
	C570.653931,2.161887 571.439697,2.089811 572.778381,2.343215 
	C575.851746,6.625957 579.490479,3.862733 582.435913,3.867419 
	C683.596619,4.028362 784.757751,3.911898 885.918274,4.124993 
	C897.294617,4.148958 909.048157,1.528966 920.028076,6.983101 
	C920.028076,6.983101 920.003296,7.003979 920.123901,7.224742 
	C920.546997,7.614279 920.849365,7.783052 921.151794,7.951813 
	C925.608215,11.328979 930.188904,14.555387 934.500000,18.108850 
	C955.857422,35.712723 977.156006,53.388008 998.451721,71.066566 
	C1024.211914,92.451180 1049.974976,113.832603 1075.687134,135.274872 
	C1097.696777,153.629425 1119.636475,172.067810 1141.477783,190.979462 
	C1139.203125,191.992523 1137.058105,192.933563 1134.912476,192.934998 
	C1028.017456,193.006744 921.122498,192.992706 814.227539,193.037155 
	C812.158630,193.038010 810.090027,193.623688 808.021240,193.936523 
	C808.021240,193.936523 807.557861,193.998413 807.250977,193.698853 
	C805.003967,191.626663 803.154846,189.740662 801.109436,188.099152 
	C783.542358,174.000519 765.946960,159.937134 748.345703,145.881104 
	C732.425232,133.167313 716.502197,120.456543 700.551697,107.780525 
	C685.766418,96.030617 670.888855,84.396286 656.154175,72.583504 
	C644.523865,63.259472 633.093933,53.685928 621.492798,44.325008 
	C608.735352,34.030972 595.946655,23.773153 583.033875,13.675684 
	C579.325867,10.776137 575.141113,8.486182 571.096802,5.596371 
	C570.635071,4.261998 570.251587,3.247979 569.868103,2.233961 
z"/>
<path fill="#D4C2FF" opacity="1.000000" stroke="none" 
	d="
M224.876282,751.590271 
	C225.438538,751.186035 226.096420,751.032227 226.757019,751.019592 
	C244.714783,750.674316 262.671539,750.213745 280.631073,750.035889 
	C323.913940,749.607239 367.198456,749.355347 410.481537,748.946594 
	C436.271515,748.703064 462.060059,748.305115 487.849060,747.962646 
	C511.972015,747.642395 536.095459,747.352478 560.217163,746.953979 
	C573.844910,746.728882 587.469543,746.311646 601.923706,745.979370 
	C603.467957,745.969482 604.183960,745.961182 604.900024,745.952942 
	C607.748596,748.640198 610.492981,751.448914 613.462341,753.995300 
	C634.361206,771.917847 655.238220,789.866943 676.256348,807.648987 
	C696.131165,824.463745 716.227966,841.016052 736.115601,857.815735 
	C749.155212,868.830505 761.996521,880.079956 775.018677,891.543518 
	C772.445984,891.907593 769.781250,891.991455 767.116577,891.992004 
	C643.788757,892.015137 520.460999,892.031006 396.692078,892.080811 
	C373.131744,873.229614 350.052673,854.295837 326.878601,835.479065 
	C312.454895,823.767334 297.820862,812.314453 283.403656,800.594788 
	C269.370514,789.187317 255.471329,777.614502 241.558578,766.059814 
	C235.968033,761.416748 230.498047,756.628601 224.876282,751.590271 
z"/>
<path fill="#B098F3" opacity="1.000000" stroke="none" 
	d="
M571.174988,5.916724 
	C575.141113,8.486182 579.325867,10.776137 583.033875,13.675684 
	C595.946655,23.773153 608.735352,34.030972 621.492798,44.325008 
	C633.093933,53.685928 644.523865,63.259472 656.154175,72.583504 
	C670.888855,84.396286 685.766418,96.030617 700.551697,107.780525 
	C716.502197,120.456543 732.425232,133.167313 748.345703,145.881104 
	C765.946960,159.937134 783.542358,174.000519 801.109436,188.099152 
	C803.154846,189.740662 805.003967,191.626663 807.020996,193.740662 
	C807.066406,251.793900 807.045044,309.505798 806.956848,367.217560 
	C806.954102,369.048798 806.263794,370.878967 805.410767,372.428070 
	C797.139709,366.011841 789.408813,359.803131 781.553040,353.756775 
	C759.770386,336.991486 737.876282,320.370453 716.137634,303.548523 
	C692.962463,285.614990 669.959351,267.459198 646.797241,249.508652 
	C628.473755,235.308014 610.066528,221.214417 591.608337,207.189316 
	C584.250916,201.598938 576.656555,196.320557 569.170044,190.900146 
	C569.084167,190.509354 568.998352,190.118591 569.195251,189.150604 
	C569.319824,183.987320 569.029114,179.401398 569.024475,174.815186 
	C568.986877,137.512772 568.939941,100.210144 569.029419,62.907913 
	C569.073242,44.649620 569.382690,26.391724 569.665771,8.135098 
	C569.677368,7.388017 570.650085,6.655843 571.174988,5.916724 
M657.122742,179.804199 
	C657.702942,180.749939 658.283142,181.695679 659.005310,182.872849 
	C661.392944,180.046143 663.042847,178.092819 664.714661,176.113541 
	C666.900146,177.600052 668.749695,178.858032 670.599243,180.116028 
	C671.065613,179.750519 671.531921,179.385010 671.998230,179.019485 
	C670.391113,177.013214 668.783936,175.006943 667.020691,172.805817 
	C667.857727,171.828781 668.757874,170.778122 669.079834,170.402283 
	C672.890564,169.832321 673.842224,175.935440 678.196289,172.573776 
	C675.761353,170.391632 673.505676,168.515930 671.423950,166.463806 
	C669.317688,164.387573 667.768555,165.145523 665.551270,167.014679 
	C664.970459,166.587006 664.389587,166.159348 663.881836,164.971741 
	C663.338440,163.164322 663.348511,160.551239 662.135803,159.718063 
	C659.651489,158.011398 656.454834,156.239410 653.655884,156.393204 
	C650.671204,156.557236 649.514648,159.711273 649.724548,162.923370 
	C648.791443,161.909882 647.858337,160.896393 647.005737,159.177567 
	C648.597778,156.716568 650.189819,154.255585 651.867493,151.662247 
	C651.088623,151.064056 649.984558,150.059860 649.877686,150.156693 
	C646.931030,152.825500 644.085815,155.606293 640.942505,158.639938 
	C641.272766,155.565750 641.763733,152.665359 641.844849,149.753555 
	C641.920105,147.052979 643.461060,143.653229 638.920837,142.176605 
	C635.112915,147.127670 631.295105,152.091553 627.493469,157.034485 
	C629.986145,160.807938 631.294250,158.327606 632.732422,156.523117 
	C634.226685,154.648224 635.751770,152.797882 637.263367,150.936798 
	C637.830383,154.286301 637.347412,157.210037 637.350464,160.133255 
	C637.352539,162.123520 637.566528,164.441269 638.626282,165.953552 
	C639.099976,166.629623 641.882385,165.687927 643.759766,165.463348 
	C643.531738,171.029419 647.304199,173.949081 652.543701,176.644669 
	C654.057556,177.472778 655.571350,178.300903 657.122742,179.804199 
M755.522766,232.562195 
	C752.434631,236.632507 749.231079,240.623611 746.342163,244.830688 
	C745.649353,245.839554 746.001953,247.566315 745.873779,248.962906 
	C746.454773,249.096039 747.035706,249.229172 747.616699,249.362289 
	C751.481995,244.352249 755.347290,239.342209 759.693298,233.709198 
	C757.658020,232.982834 756.301147,232.498566 754.338745,231.642578 
	C750.640015,228.062592 746.941284,224.482590 743.242554,220.902603 
	C742.582520,221.359116 741.922485,221.815628 741.262512,222.272141 
	C742.212280,224.035324 743.162048,225.798508 744.383179,228.065491 
	C741.635498,231.753418 738.512207,235.945465 735.281616,240.281540 
	C736.306091,240.992569 737.481140,241.938156 737.566284,241.848465 
	C741.219482,238.002472 744.775818,234.064514 747.712097,230.833130 
	C750.519897,231.266037 752.761597,231.611664 755.522766,232.562195 
M705.103394,192.731827 
	C702.458679,190.541199 699.813965,188.350571 696.915649,185.949860 
	C693.188354,190.734543 689.646423,195.052750 686.438354,199.606140 
	C685.847534,200.444748 686.609070,202.236176 686.873901,204.841614 
	C689.417175,201.905319 690.677673,200.450027 693.156982,197.587570 
	C693.785522,200.876938 694.107605,202.809036 694.532776,204.718170 
	C694.959778,206.635559 695.489563,208.530075 696.130676,211.039261 
	C697.068237,211.354919 698.005737,211.670578 699.196777,212.635574 
	C700.767761,214.158890 702.126160,214.478653 703.555359,212.315628 
	C704.661377,210.641830 706.123779,209.203552 707.736511,207.295197 
	C707.468323,211.708054 707.248901,215.317688 707.068787,219.624512 
	C707.068787,221.312592 707.068787,223.000687 707.068787,224.435562 
	C708.762207,223.391510 710.612244,222.250900 712.355957,221.763947 
	C713.903809,222.831940 715.451599,223.899933 717.348083,225.623840 
	C718.552795,226.335571 719.887085,227.807892 720.939880,227.628433 
	C725.705566,226.816086 729.041565,229.313324 729.215332,233.953674 
	C729.258423,235.103775 730.496033,236.209122 731.809570,238.357193 
	C733.892456,231.518890 735.673279,226.195755 737.055847,220.771088 
	C737.408997,219.385681 736.988525,216.962830 736.038574,216.315842 
	C735.037476,215.633987 732.751221,216.077332 731.420227,216.777557 
	C726.501404,219.365417 721.745300,222.262650 716.173767,224.573166 
	C719.706299,219.486176 723.238892,214.399185 726.662415,209.469238 
	C724.305908,205.282516 721.739563,207.430756 719.144836,208.985611 
	C716.593323,210.514572 713.994995,211.965591 710.199036,214.152664 
	C711.771912,209.158890 712.899902,205.577530 714.598389,201.678024 
	C714.708618,199.569336 714.818909,197.460648 714.929138,195.351944 
	C714.474182,195.718857 714.019226,196.085770 713.564209,196.452682 
	C710.907349,195.350418 708.250427,194.248138 705.103394,192.731827 
M780.145691,261.481934 
	C779.658325,257.251434 783.675110,252.224991 778.065308,248.391083 
	C774.407593,253.106155 770.943115,257.341339 767.809082,261.808380 
	C767.188660,262.692657 767.837708,264.467621 767.901306,265.831818 
	C768.408630,265.815186 768.915955,265.798553 769.423279,265.781921 
	C771.721558,262.888916 774.019897,259.995911 776.318176,257.102905 
	C776.769897,260.515076 776.286377,263.474976 776.152527,266.450531 
	C776.030884,269.156555 774.646606,272.674225 779.530151,273.308990 
	C783.304443,268.346313 787.068359,263.397217 790.832336,258.448090 
	C790.389954,257.888794 789.947510,257.329529 789.505127,256.770264 
	C784.654419,256.632324 784.322693,263.430511 780.061829,264.758606 
	C780.061829,263.860840 780.061829,263.075195 780.145691,261.481934 
M598.503906,133.243408 
	C598.795654,134.161133 599.087402,135.078857 599.379150,135.996597 
	C601.270508,134.756271 603.161804,133.515945 606.013184,131.646027 
	C606.754822,135.796600 607.442139,139.643326 608.129517,143.490036 
	C608.629395,143.395233 609.129211,143.300430 609.629089,143.205627 
	C609.995850,140.961273 610.362549,138.716904 610.729309,136.472534 
	C611.168762,136.810516 611.608215,137.148499 612.047668,137.486481 
	C614.358948,135.085571 618.241699,132.931427 618.665344,130.234085 
	C619.648743,123.971642 613.181580,122.546242 609.450867,118.908493 
	C605.772522,123.723122 602.361267,128.188202 598.503906,133.243408 
M757.154358,257.547089 
	C763.284668,260.292480 768.766602,258.326874 771.513367,252.398651 
	C773.949097,247.141724 771.981689,241.993240 766.647095,239.664383 
	C762.702271,237.942261 758.406982,239.373901 755.354004,243.428436 
	C751.718201,248.257034 752.037354,252.069595 757.154358,257.547089 
M690.112244,181.457169 
	C687.674133,177.322296 683.943420,176.033646 679.480103,177.046677 
	C675.585449,177.930618 671.877686,182.934052 671.724365,187.071075 
	C671.554382,191.657013 673.827026,195.068771 678.087402,195.927414 
	C680.629700,196.439819 684.168579,195.625076 686.240906,194.059036 
	C689.956116,191.251465 692.729492,187.368790 690.112244,181.457169 
M621.695435,148.262558 
	C622.679260,150.831161 623.663025,153.399765 624.646790,155.968384 
	C627.678162,149.937485 629.665344,144.023010 631.376221,138.029633 
	C631.629333,137.143082 630.857605,135.513916 630.049622,134.899551 
	C629.220764,134.269379 627.435913,133.909760 626.637878,134.385406 
	C621.311279,137.560181 616.136719,140.990189 610.912781,144.337311 
	C611.010193,144.805206 611.107544,145.273087 611.204956,145.740982 
	C613.296631,145.740982 615.388306,145.740982 618.367065,145.740982 
	C618.705139,145.997223 619.889038,146.894592 621.695435,148.262558 
M600.445435,112.014725 
	C595.879211,108.516121 595.879211,108.516121 594.118469,111.374542 
	C595.302673,112.454239 596.486938,113.533936 597.833984,114.762070 
	C595.290771,118.102486 592.761047,121.175247 590.554138,124.464592 
	C589.819153,125.560104 589.911560,127.210762 589.625793,128.607651 
	C590.885193,128.028061 592.498474,127.761505 593.338806,126.811302 
	C596.065308,123.728424 598.508484,120.395012 601.012268,117.219673 
	C602.904358,118.310417 604.397522,119.171165 607.105896,120.732452 
	C606.905640,115.508057 602.992615,114.674156 600.445435,112.014725 
z"/>
<path fill="#D4C2FF" opacity="1.000000" stroke="none" 
	d="
M569.107178,191.250992 
	C576.656555,196.320557 584.250916,201.598938 591.608337,207.189316 
	C610.066528,221.214417 628.473755,235.308014 646.797241,249.508652 
	C669.959351,267.459198 692.962463,285.614990 716.137634,303.548523 
	C737.876282,320.370453 759.770386,336.991486 781.553040,353.756775 
	C789.408813,359.803131 797.139709,366.011841 805.014771,372.457092 
	C804.275757,372.842987 803.450317,372.974915 802.623230,372.985260 
	C773.891968,373.345123 745.160278,373.675751 716.429199,374.049133 
	C692.518494,374.359863 668.606567,374.624359 644.698914,375.096100 
	C632.616394,375.334503 620.541931,375.986664 607.867310,376.726501 
	C606.863525,376.947876 606.456421,376.894562 606.004395,376.510620 
	C604.962158,375.117035 604.084167,373.900726 602.948059,373.015808 
	C595.105896,366.907715 587.197510,360.884796 579.333679,354.804474 
	C554.820374,335.850830 530.350403,316.840973 505.800629,297.934753 
	C484.015961,281.158081 462.105469,264.544708 440.329742,247.756500 
	C425.249390,236.130173 410.289368,224.347488 395.303528,212.599014 
	C387.491486,206.474609 379.739960,200.273087 371.961090,194.106384 
	C372.720886,194.083221 373.480713,194.060059 374.717407,194.446686 
	C376.874420,195.237961 378.554230,195.951340 380.234680,195.952942 
	C441.014984,196.010590 501.795380,196.018631 562.575562,195.921021 
	C564.382019,195.918121 566.186584,194.709579 567.992065,194.063187 
	C568.342773,193.242752 568.693542,192.422287 569.107178,191.250992 
z"/>
<path fill="#AA9AE0" opacity="1.000000" stroke="none" 
	d="
M606.049255,376.841248 
	C606.456421,376.894562 606.863525,376.947876 607.574890,377.041626 
	C607.916443,404.911346 608.011230,432.740723 607.978455,460.570007 
	C607.922241,508.228638 607.824585,555.887329 607.651245,603.545715 
	C607.616821,613.026428 607.164185,622.505737 606.828613,632.437988 
	C606.502136,631.301086 606.036377,629.712158 606.033264,628.122375 
	C605.989197,605.443481 606.007690,582.764465 606.047180,559.284424 
	C605.710266,557.668884 605.337402,556.854370 605.136230,555.653137 
	C605.540405,553.146362 605.974121,551.026550 605.976013,548.906311 
	C606.027466,491.551270 606.034607,434.196259 606.049255,376.841248 
z"/>
<path fill="#D2C5EE" opacity="1.000000" stroke="none" 
	d="
M808.486816,193.966049 
	C810.090027,193.623688 812.158630,193.038010 814.227539,193.037155 
	C921.122498,192.992706 1028.017456,193.006744 1134.912476,192.934998 
	C1137.058105,192.933563 1139.203125,191.992523 1141.655762,191.256805 
	C1142.810059,191.604416 1143.656982,192.185059 1144.796265,192.876755 
	C1143.364380,193.327164 1141.640381,193.962860 1139.916016,193.963547 
	C1029.594727,194.007080 919.273560,193.999008 808.486816,193.966049 
z"/>
<path fill="#AA9AE0" opacity="1.000000" stroke="none" 
	d="
M604.938232,745.489990 
	C604.183960,745.961182 603.467957,745.969482 602.394348,745.959839 
	C602.691223,741.218201 603.749329,736.508362 603.912781,731.767761 
	C604.216492,722.955444 603.837524,714.121582 604.033081,705.303162 
	C604.385986,689.387024 604.952698,673.475525 605.737976,657.274414 
	C606.259644,661.092163 606.699768,665.200623 606.648010,669.302795 
	C606.427673,686.747620 606.096741,704.191284 605.732727,721.633911 
	C605.569946,729.433472 605.233887,737.229370 604.938232,745.489990 
z"/>
<path fill="#D4C2FF" opacity="1.000000" stroke="none" 
	d="
M604.964478,556.039856 
	C605.337402,556.854370 605.710266,557.668884 606.056824,558.826538 
	C603.534973,559.112610 601.039490,559.005737 598.544006,559.005554 
	C473.961761,558.996887 349.379547,558.994751 224.797318,559.022522 
	C222.836273,559.023010 220.875320,559.406067 218.559143,559.793091 
	C210.117615,553.115112 201.981354,546.312378 193.955215,539.381958 
	C176.623840,524.416809 159.324753,509.413940 142.059433,494.372559 
	C130.420166,484.232544 118.931465,473.918945 107.247017,463.831757 
	C94.694168,452.994843 81.946541,442.383789 69.368942,431.575226 
	C60.431839,423.895081 51.674683,416.005859 42.766846,408.291199 
	C31.482113,398.518066 20.123196,388.830536 8.813910,379.085632 
	C8.459607,378.780365 8.300007,378.249115 8.020003,377.077026 
	C8.148094,372.952850 10.372000,372.864777 12.932716,373.146454 
	C16.049816,373.489319 19.179104,373.963745 22.303278,373.964905 
	C135.556488,374.006744 248.809708,374.000092 362.062927,373.999481 
	C363.561829,373.999481 365.109863,374.216766 366.541809,373.904968 
	C367.449982,373.707184 368.185455,372.716248 368.998413,372.081055 
	C369.422577,372.049316 369.846710,372.017517 370.799133,372.236511 
	C384.137268,382.426331 397.033966,392.256012 409.735138,402.332062 
	C425.570740,414.894684 441.177063,427.746185 457.006348,440.316895 
	C477.245270,456.389526 497.603546,472.311920 517.918396,488.288849 
	C537.972046,504.060333 558.004089,519.859680 578.109436,535.564941 
	C586.979797,542.494019 596.007996,549.221069 604.964478,556.039856 
z"/>
<path fill="#B198F3" opacity="1.000000" stroke="none" 
	d="
M605.136230,555.653137 
	C596.007996,549.221069 586.979797,542.494019 578.109436,535.564941 
	C558.004089,519.859680 537.972046,504.060333 517.918396,488.288849 
	C497.603546,472.311920 477.245270,456.389526 457.006348,440.316895 
	C441.177063,427.746185 425.570740,414.894684 409.735138,402.332062 
	C397.033966,392.256012 384.137268,382.426331 371.117554,372.217041 
	C370.937683,314.824280 370.964325,257.701843 371.011414,200.579422 
	C371.013062,198.596130 371.218475,196.612991 371.645020,194.368088 
	C379.739960,200.273087 387.491486,206.474609 395.303528,212.599014 
	C410.289368,224.347488 425.249390,236.130173 440.329742,247.756500 
	C462.105469,264.544708 484.015961,281.158081 505.800629,297.934753 
	C530.350403,316.840973 554.820374,335.850830 579.333679,354.804474 
	C587.197510,360.884796 595.105896,366.907715 602.948059,373.015808 
	C604.084167,373.900726 604.962158,375.117035 606.004395,376.510620 
	C606.034607,434.196259 606.027466,491.551270 605.976013,548.906311 
	C605.974121,551.026550 605.540405,553.146362 605.136230,555.653137 
M434.811279,341.398773 
	C434.786285,341.719238 434.761292,342.039673 434.607880,342.586761 
	C434.607880,342.586761 434.386810,342.724426 433.715942,342.290741 
	C431.028656,341.135895 429.257782,339.816254 431.728882,336.654358 
	C432.357208,335.850372 431.861206,334.167694 431.901703,332.882874 
	C431.901703,332.882874 431.875916,332.863708 432.622192,332.932892 
	C436.526337,330.466248 440.510681,328.057617 440.395782,323.699951 
	C436.255646,322.953003 432.577637,322.289429 428.562958,321.565125 
	C426.508698,318.062622 425.083527,313.112823 418.962128,315.021118 
	C416.750549,315.710541 414.126465,315.811676 412.429413,317.131378 
	C411.464508,317.881683 412.107513,320.572021 411.811310,322.352905 
	C411.597778,323.636566 411.029419,324.861145 410.165009,326.037781 
	C410.165009,326.037781 409.771637,325.798798 409.629364,325.003998 
	C404.924988,323.395905 404.230438,323.916412 404.353455,328.981934 
	C405.588959,328.981934 406.825470,328.981934 408.238831,329.653839 
	C409.528656,331.679657 410.818481,333.705505 412.316376,336.321320 
	C412.869965,336.552673 413.423523,336.784027 414.536102,337.074677 
	C415.058441,337.261200 415.580811,337.447723 416.127045,338.384674 
	C417.914307,338.870026 419.701538,339.355377 421.488800,339.840759 
	C421.192932,340.159882 420.897064,340.479034 420.601196,340.798157 
	C422.536316,342.457855 424.471436,344.117523 427.071777,346.023041 
	C430.272247,348.375763 433.532990,348.663239 436.906189,347.110718 
	C438.159149,349.002960 432.577362,351.178040 437.772156,353.126526 
	C439.862885,351.973419 441.953583,350.820282 444.402466,349.469635 
	C447.919312,353.903473 452.485382,352.881683 457.652771,351.163849 
	C455.860382,353.961426 453.880707,356.662872 452.370331,359.605255 
	C451.789001,360.737762 452.275604,362.418488 452.275604,363.849396 
	C452.735229,363.881134 453.194855,363.912872 453.654449,363.944611 
	C455.014282,362.331299 456.374084,360.717957 457.935181,358.865845 
	C461.689575,361.952789 465.480713,364.465851 470.970154,360.864044 
	C467.101227,370.324615 467.381805,373.932800 471.557587,377.143127 
	C475.030548,379.813141 479.698822,379.707153 483.073242,376.881836 
	C486.952209,373.634094 488.822418,368.129791 486.755096,364.408417 
	C482.821808,357.328217 476.891022,358.096954 470.373138,361.663696 
	C473.139984,353.794067 471.072479,350.488159 462.164917,346.784576 
	C460.371765,348.045532 458.789276,349.158356 456.610809,349.630615 
	C457.842865,342.557922 455.844391,339.778168 447.112701,335.793823 
	C447.473907,334.812286 447.835114,333.830780 448.189148,332.868805 
	C439.971100,329.153412 439.754028,329.222748 439.600220,335.559418 
	C439.600220,335.559418 439.477661,335.710510 438.759369,335.385620 
	C438.181641,336.602448 437.603943,337.819244 437.000000,339.000000 
	C437.000000,339.000000 437.037048,339.024567 436.353455,339.108978 
	C436.028015,339.839874 435.702576,340.570770 435.062195,341.102539 
	C435.062195,341.102539 435.355682,341.332092 434.811279,341.398773 
M496.022369,384.554688 
	C499.866455,384.415314 502.624786,382.435577 502.900146,378.697998 
	C503.385925,372.104340 497.001038,371.206299 493.056824,367.556824 
	C489.208740,373.068420 485.575195,378.272766 481.794769,383.687439 
	C486.438477,387.914276 486.441925,381.301025 490.428986,381.164307 
	C491.135498,384.527283 491.915314,388.238983 492.695099,391.950684 
	C493.210724,391.863678 493.726379,391.776703 494.242035,391.689697 
	C494.591797,389.444427 494.941559,387.199158 496.022369,384.554688 
M507.358582,385.448395 
	C504.867981,389.073029 502.377380,392.697632 499.779724,396.478027 
	C500.893341,397.169769 502.120728,398.061188 502.203674,397.965057 
	C505.682159,393.934265 509.058380,389.815216 512.438965,385.717224 
	C516.599731,388.108582 516.599731,388.108582 518.299255,385.609894 
	C506.865784,376.522186 506.865784,376.522186 505.386200,378.958405 
	C506.341919,381.270081 507.078766,383.052338 507.358582,385.448395 
z"/>
<path fill="#D2C5EE" opacity="1.000000" stroke="none" 
	d="
M368.530945,372.048309 
	C368.185455,372.716248 367.449982,373.707184 366.541809,373.904968 
	C365.109863,374.216766 363.561829,373.999481 362.062927,373.999481 
	C248.809708,374.000092 135.556488,374.006744 22.303278,373.964905 
	C19.179104,373.963745 16.049816,373.489319 12.932716,373.146454 
	C10.372000,372.864777 8.148094,372.952850 7.960665,376.742920 
	C6.077692,375.860229 4.224432,374.565460 2.371173,373.270660 
	C2.484609,372.852295 2.598046,372.433929 2.711482,372.015564 
	C124.495483,372.015564 246.279480,372.015564 368.530945,372.048309 
z"/>
<path fill="#D3C4F0" opacity="1.000000" stroke="none" 
	d="
M919.871094,6.673038 
	C909.048157,1.528966 897.294617,4.148958 885.918274,4.124993 
	C784.757751,3.911898 683.596619,4.028362 582.435913,3.867419 
	C579.490479,3.862733 575.851746,6.625957 573.173767,2.360826 
	C652.619568,2.031596 732.222778,2.007767 811.826050,1.990066 
	C844.466919,1.982808 877.107971,2.044255 909.748413,1.920163 
	C913.938904,1.904232 917.236145,2.982469 919.871094,6.673038 
z"/>
<path fill="#D3C4F0" opacity="1.000000" stroke="none" 
	d="
M567.524902,194.036774 
	C566.186584,194.709579 564.382019,195.918121 562.575562,195.921021 
	C501.795380,196.018631 441.014984,196.010590 380.234680,195.952942 
	C378.554230,195.951340 376.874420,195.237961 375.097260,194.469177 
	C439.019379,194.058044 503.038574,194.034210 567.524902,194.036774 
z"/>
<path fill="#AA9AE0" opacity="1.000000" stroke="none" 
	d="
M571.096802,5.596371 
	C570.650085,6.655843 569.677368,7.388017 569.665771,8.135098 
	C569.382690,26.391724 569.073242,44.649620 569.029419,62.907913 
	C568.939941,100.210144 568.986877,137.512772 569.024475,174.815186 
	C569.029114,179.401398 569.319824,183.987320 569.159058,188.852661 
	C568.559937,187.373840 568.035950,185.615875 568.034729,183.857544 
	C567.993225,125.030785 567.992432,66.203979 568.048767,7.377236 
	C568.050415,5.696760 568.736816,4.016944 569.486023,2.285391 
	C570.251587,3.247979 570.635071,4.261998 571.096802,5.596371 
z"/>
<path fill="#D4C2FF" opacity="1.000000" stroke="none" 
	d="
M396.132935,1075.301758 
	C396.445221,1075.793091 396.678619,1076.614014 396.839111,1077.768188 
	C396.528809,1077.278076 396.291412,1076.454712 396.132935,1075.301758 
z"/>
<path fill="#D3C4F0" opacity="1.000000" stroke="none" 
	d="
M921.017212,7.729376 
	C920.849365,7.783052 920.546997,7.614279 920.125977,7.208936 
	C920.299194,7.150553 920.590881,7.328740 921.017212,7.729376 
z"/>
<path fill="#160F29" opacity="1.000000" stroke="none" 
	d="
M602.370605,987.970215 
	C602.359070,984.995850 602.205688,982.491150 602.404480,980.014771 
	C602.481140,979.059631 603.493286,977.318298 603.850464,977.375061 
	C610.231750,978.388977 616.556458,976.586365 622.957520,977.216553 
	C628.205627,977.733154 631.344299,980.272034 632.855103,985.108337 
	C636.806213,983.351257 635.521118,976.119873 641.632019,977.438660 
	C638.961670,983.731018 636.384216,989.804260 633.450195,996.717773 
	C633.280151,996.562317 631.815430,995.856384 631.443298,994.774719 
	C629.715027,989.750061 628.289429,984.621216 626.747986,979.504944 
	C623.170105,980.266113 620.855652,980.758484 618.423645,981.275818 
	C617.985046,986.423157 617.564392,991.605347 617.001831,996.772156 
	C616.984985,996.926514 615.480164,996.918762 614.054688,997.037964 
	C614.054688,991.643433 614.054688,986.424255 614.054688,981.621094 
	C611.162537,980.685303 608.930847,979.963135 606.313599,979.116272 
	C606.313599,984.797913 606.313599,990.711304 606.313599,996.603149 
	C602.248962,996.633057 602.248962,996.633057 602.370605,987.970215 
z"/>
<path fill="#110B21" opacity="1.000000" stroke="none" 
	d="
M577.545959,982.224121 
	C579.405945,987.196899 581.100525,991.821655 583.126770,997.351257 
	C581.150513,996.825500 579.651672,996.879089 578.912659,996.156006 
	C574.456970,991.796448 572.558899,992.093872 567.811951,995.991272 
	C566.043335,997.443298 562.520203,996.878174 559.786621,997.003113 
	C556.638306,997.146912 553.478394,997.036499 549.541260,997.036499 
	C549.541260,990.910522 549.485413,985.004578 549.622253,979.103088 
	C549.636963,978.469727 550.773193,977.862366 551.389038,977.242920 
	C552.012512,978.000610 553.103455,978.717651 553.173584,979.523621 
	C553.403931,982.169495 553.528503,984.879883 553.207520,987.506104 
	C552.641357,992.139160 554.059448,994.356750 559.086670,993.810852 
	C560.516541,993.655640 562.078552,994.717651 564.202576,995.430359 
	C565.727417,991.374634 567.403564,986.408447 569.495605,981.624146 
	C570.242188,979.917053 571.996521,978.650635 573.290894,977.183105 
	C574.654175,978.747437 576.017395,980.311768 577.545959,982.224121 
M574.537842,990.163208 
	C574.537842,987.565491 574.537842,984.967773 574.537842,982.370056 
	C574.035339,982.374268 573.532776,982.378540 573.030273,982.382751 
	C572.492432,983.730042 571.892273,985.056702 571.436951,986.431274 
	C571.090393,987.477905 570.927673,988.585388 570.618774,989.950073 
	C571.838257,990.018799 572.791443,990.072449 574.537842,990.163208 
z"/>
<path fill="#110B21" opacity="1.000000" stroke="none" 
	d="
M587.247864,977.213684 
	C588.865845,977.191345 590.032043,977.155579 591.196838,977.180542 
	C594.612488,977.253784 598.553040,977.416260 599.395142,981.286316 
	C599.995850,984.047119 598.642212,987.233154 598.160767,990.229431 
	C597.614685,990.211121 597.068604,990.192871 596.522522,990.174561 
	C597.584534,992.196228 598.646545,994.217896 599.763062,996.343262 
	C596.287598,998.319702 595.764343,995.302490 594.342346,993.513794 
	C593.321106,992.229309 591.744446,991.386414 590.415649,990.346497 
	C589.863586,991.738953 589.430237,993.195435 588.723022,994.504089 
	C588.128235,995.604797 587.214783,996.533325 586.442444,997.538086 
	C585.981079,997.324890 585.519775,997.111755 585.058411,996.898560 
	C585.058411,990.806213 585.019714,984.713196 585.133423,978.622986 
	C585.142273,978.147827 586.216431,977.692505 587.247864,977.213684 
M594.635620,986.360901 
	C594.850891,984.814087 595.551819,982.063293 595.200256,981.921448 
	C593.321350,981.163513 591.179626,981.057129 588.724182,980.659973 
	C588.846375,983.393250 588.922974,985.106140 589.010132,987.055359 
	C590.976562,986.922241 592.423462,986.824280 594.635620,986.360901 
z"/>
<path fill="#160F29" opacity="1.000000" stroke="none" 
	d="
M544.089111,996.165100 
	C539.354065,998.004883 535.156372,997.991516 532.066345,993.973511 
	C529.174011,990.212585 529.273071,985.882446 531.189453,981.728638 
	C532.938965,977.936523 536.363892,976.706299 540.291870,977.076538 
	C544.126282,977.438049 546.638000,979.421387 547.223450,984.259583 
	C542.249390,983.410400 534.525574,974.837524 534.238403,986.948364 
	C533.947205,999.225281 541.857666,991.666870 547.041748,990.016541 
	C547.151306,990.439819 547.260864,990.863098 547.370361,991.286377 
	C546.390503,992.859375 545.410645,994.432434 544.089111,996.165100 
z"/>
<path fill="#160F29" opacity="1.000000" stroke="none" 
	d="
M467.521393,660.639038 
	C466.000702,658.312317 464.700806,656.291748 463.400909,654.271118 
	C462.945282,654.381348 462.489655,654.491577 462.034027,654.601807 
	C462.034027,656.155945 462.034027,657.710144 462.034027,659.264343 
	C462.034027,660.920715 462.034027,662.577026 462.034027,664.233398 
	C461.696869,664.593445 461.359711,664.953552 461.022522,665.313599 
	C460.033997,664.382263 458.238007,663.490295 458.190277,662.513000 
	C457.916260,656.903931 458.056946,651.274536 458.056946,645.303223 
	C465.824066,644.883667 464.636719,653.591675 470.255371,655.703857 
	C470.515991,652.216675 470.763489,648.905212 471.010956,645.593689 
	C471.424866,645.324890 471.838806,645.056091 472.252716,644.787292 
	C473.069794,645.842651 474.544708,646.868896 474.593048,647.958435 
	C474.835266,653.418518 474.704010,658.895203 474.704010,664.294434 
	C470.446686,666.553162 469.255890,663.435852 467.521393,660.639038 
z"/>
<path fill="#130D24" opacity="1.000000" stroke="none" 
	d="
M450.429230,664.544128 
	C441.682343,666.017822 437.054962,662.864319 437.106628,655.506470 
	C437.136932,651.192078 438.358307,647.259521 443.132721,645.665466 
	C447.391449,644.243469 451.107758,644.985046 453.745880,648.741577 
	C456.603271,652.810242 456.567047,657.168518 453.978729,661.359192 
	C453.232727,662.567017 451.852722,663.383301 450.429230,664.544128 
M441.211700,653.057739 
	C440.875610,659.566833 443.814972,663.616333 447.752258,661.616089 
	C449.718842,660.617065 451.582581,657.304688 451.543762,655.072571 
	C451.506165,652.909790 449.426910,649.947510 447.419159,648.860291 
	C444.761902,647.421448 442.476379,649.407410 441.211700,653.057739 
z"/>
<path fill="#160F29" opacity="1.000000" stroke="none" 
	d="
M395.125092,657.484131 
	C394.957520,648.734314 398.597412,644.338745 405.184448,645.065430 
	C408.924316,645.478027 411.739624,647.140869 412.242676,652.843872 
	C410.140991,651.597351 408.746826,650.953308 407.568176,650.033203 
	C405.131500,648.130859 402.780060,647.877502 400.585327,650.220947 
	C398.298981,652.662170 398.367004,657.991272 400.653839,660.341858 
	C402.946198,662.698120 405.277435,662.348450 407.668213,660.362061 
	C408.727234,659.482117 409.987213,658.843994 411.923218,657.605225 
	C411.739166,662.835144 409.501068,664.698181 405.821442,665.180054 
	C400.282166,665.905334 397.560120,664.019104 395.125092,657.484131 
z"/>
<path fill="#110B21" opacity="1.000000" stroke="none" 
	d="
M389.687622,651.148315 
	C391.340332,655.701355 392.829834,659.906189 394.795441,665.454956 
	C390.887360,663.669739 388.002045,661.310181 385.136261,661.333679 
	C382.233276,661.357483 379.349579,663.737549 375.268097,665.639893 
	C377.827484,658.586060 379.826294,652.534119 382.383942,646.728333 
	C382.697266,646.017029 386.190735,646.150635 387.850525,646.805176 
	C388.787872,647.174927 388.990723,649.406982 389.687622,651.148315 
M384.644806,658.106567 
	C385.692505,657.970764 386.740204,657.834961 388.201111,657.645508 
	C387.197998,655.047363 386.367493,652.896301 385.536957,650.745300 
	C384.973328,650.831848 384.409668,650.918457 383.846039,651.005066 
	C383.846039,653.370667 383.846039,655.736267 384.644806,658.106567 
z"/>
<path fill="#160F29" opacity="1.000000" stroke="none" 
	d="
M424.678101,645.147278 
	C426.377838,645.819214 427.628998,646.484192 428.880188,647.149170 
	C427.138031,647.981812 425.395874,648.814514 423.083191,649.919922 
	C423.083191,654.334656 423.083191,659.431213 423.083191,664.527832 
	C422.628601,664.826782 422.174011,665.125793 421.719421,665.424744 
	C420.832458,664.350708 419.260712,663.325317 419.180328,662.193970 
	C418.877075,657.924683 419.058533,653.620972 419.058533,649.908142 
	C416.800812,648.774231 415.092072,647.916016 413.383362,647.057800 
	C415.339630,646.432739 417.260559,645.621826 419.263275,645.241272 
	C420.867157,644.936462 422.570404,645.154358 424.678101,645.147278 
z"/>
<path fill="#130D24" opacity="1.000000" stroke="none" 
	d="
M431.058807,648.233215 
	C431.537964,647.229431 432.017120,646.225647 432.496277,645.221863 
	C433.274902,646.041504 434.691345,646.834412 434.727142,647.685303 
	C434.935883,652.651062 434.951050,657.636658 434.708282,662.599792 
	C434.658264,663.622314 433.238556,664.577759 432.450195,665.564148 
	C431.961548,665.350037 431.472870,665.135925 430.984192,664.921753 
	C430.984192,659.847473 430.984192,654.773132 431.024353,649.091431 
	C431.064545,648.484070 431.058807,648.233215 431.058807,648.233215 
z"/>
<path fill="#160F29" opacity="1.000000" stroke="none" 
	d="
M430.982300,648.292969 
	C431.058807,648.233215 431.064545,648.484070 431.069763,648.609131 
	C431.074951,648.734192 430.851685,648.559326 430.851685,648.559326 
	C430.851685,648.559326 430.905792,648.352783 430.982300,648.292969 
z"/>
<path fill="#110B21" opacity="1.000000" stroke="none" 
	d="
M652.024841,176.138931 
	C647.304199,173.949081 643.531738,171.029419 643.759766,165.463348 
	C641.882385,165.687927 639.099976,166.629623 638.626282,165.953552 
	C637.566528,164.441269 637.352539,162.123520 637.350464,160.133255 
	C637.347412,157.210037 637.830383,154.286301 637.263367,150.936798 
	C635.751770,152.797882 634.226685,154.648224 632.732422,156.523117 
	C631.294250,158.327606 629.986145,160.807938 627.493469,157.034485 
	C631.295105,152.091553 635.112915,147.127670 638.920837,142.176605 
	C643.461060,143.653229 641.920105,147.052979 641.844849,149.753555 
	C641.763733,152.665359 641.272766,155.565750 640.942505,158.639938 
	C644.085815,155.606293 646.931030,152.825500 649.877686,150.156693 
	C649.984558,150.059860 651.088623,151.064056 651.867493,151.662247 
	C650.189819,154.255585 648.597778,156.716568 646.642273,159.670502 
	C645.540222,161.297211 644.801575,162.430954 644.062988,163.564713 
	C644.599365,163.430237 645.135681,163.295761 645.672058,163.161285 
	C646.575806,164.971542 647.316650,166.890808 648.432861,168.558884 
	C649.391418,169.991409 650.632568,171.360718 652.054260,172.290878 
	C652.569214,172.627792 654.853210,171.504135 654.820007,171.228363 
	C654.641357,169.741409 654.174255,168.208954 653.448242,166.889496 
	C652.657532,165.452545 651.474487,164.231491 650.462524,162.916290 
	C649.514648,159.711273 650.671204,156.557236 653.655884,156.393204 
	C656.454834,156.239410 659.651489,158.011398 662.135803,159.718063 
	C663.348511,160.551239 663.338440,163.164322 663.571045,165.509247 
	C662.212769,165.076721 661.125183,164.145905 660.128235,163.126465 
	C658.946899,161.918472 657.946655,160.501526 656.631531,159.479324 
	C656.316833,159.234756 654.318298,160.362503 654.365723,160.573792 
	C654.702576,162.075119 655.336731,163.516571 655.951660,164.944595 
	C656.140625,165.383423 656.721680,165.673508 656.854736,166.112961 
	C657.539307,168.374298 659.291077,171.312332 658.467896,172.773697 
	C657.471130,174.543625 654.271301,175.072815 652.024841,176.138931 
z"/>
<path fill="#110B21" opacity="1.000000" stroke="none" 
	d="
M716.999451,224.967926 
	C715.451599,223.899933 713.903809,222.831940 712.595459,221.345215 
	C712.991760,220.692352 713.098083,220.437164 713.474976,220.071686 
	C715.285950,218.083679 716.775757,216.184937 718.462219,214.166046 
	C718.599121,213.784546 718.539307,213.523178 718.479492,213.261841 
	C718.302673,213.488983 718.125793,213.716110 717.614319,213.949554 
	C715.833435,214.911606 714.387146,215.867340 712.655396,216.897980 
	C711.914429,217.315933 711.458984,217.658951 710.656128,218.064911 
	C709.215759,218.394333 708.122620,218.660828 707.029541,218.927322 
	C707.248901,215.317688 707.468323,211.708054 707.736511,207.295197 
	C706.123779,209.203552 704.661377,210.641830 703.555359,212.315628 
	C702.126160,214.478653 700.767761,214.158890 699.321411,212.089935 
	C703.140015,206.711609 706.833923,201.878937 711.307922,196.025757 
	C712.454163,198.541748 713.241028,200.268967 714.027893,201.996185 
	C712.899902,205.577530 711.771912,209.158890 710.199036,214.152664 
	C713.994995,211.965591 716.593323,210.514572 719.144836,208.985611 
	C721.739563,207.430756 724.305908,205.282516 726.662415,209.469238 
	C723.238892,214.399185 719.706299,219.486176 716.572388,224.792923 
	C716.971069,225.012680 716.999451,224.967941 716.999451,224.967926 
z"/>
<path fill="#130D24" opacity="1.000000" stroke="none" 
	d="
M780.103760,261.885742 
	C780.061829,263.075195 780.061829,263.860840 780.061829,264.758606 
	C784.322693,263.430511 784.654419,256.632324 789.505127,256.770264 
	C789.947510,257.329529 790.389954,257.888794 790.832336,258.448090 
	C787.068359,263.397217 783.304443,268.346313 779.530151,273.308990 
	C774.646606,272.674225 776.030884,269.156555 776.152527,266.450531 
	C776.286377,263.474976 776.769897,260.515076 776.318176,257.102905 
	C774.019897,259.995911 771.721558,262.888916 769.423279,265.781921 
	C768.915955,265.798553 768.408630,265.815186 767.901306,265.831818 
	C767.837708,264.467621 767.188660,262.692657 767.809082,261.808380 
	C770.943115,257.341339 774.407593,253.106155 778.065308,248.391083 
	C783.675110,252.224991 779.658325,257.251434 780.103760,261.885742 
z"/>
<path fill="#130D24" opacity="1.000000" stroke="none" 
	d="
M598.726929,132.948334 
	C602.361267,128.188202 605.772522,123.723122 609.450867,118.908493 
	C613.181580,122.546242 619.648743,123.971642 618.665344,130.234085 
	C618.241699,132.931427 614.358948,135.085571 612.047668,137.486481 
	C611.608215,137.148499 611.168762,136.810516 610.729309,136.472534 
	C610.362549,138.716904 609.995850,140.961273 609.629089,143.205627 
	C609.129211,143.300430 608.629395,143.395233 608.129517,143.490036 
	C607.442139,139.643326 606.754822,135.796600 606.013184,131.646027 
	C603.161804,133.515945 601.270508,134.756271 599.379150,135.996597 
	C599.087402,135.078857 598.795654,134.161133 598.726929,132.948334 
M613.251648,131.908890 
	C617.820740,127.438133 612.870483,126.346413 610.434998,123.969261 
	C609.121643,125.601669 607.932922,127.079102 606.226074,129.200546 
	C608.754700,130.348328 610.615906,131.193130 613.251648,131.908890 
z"/>
<path fill="#130D24" opacity="1.000000" stroke="none" 
	d="
M695.974365,210.434631 
	C695.489563,208.530075 694.959778,206.635559 694.532776,204.718170 
	C694.107605,202.809036 693.785522,200.876938 693.156982,197.587570 
	C690.677673,200.450027 689.417175,201.905319 686.873901,204.841614 
	C686.609070,202.236176 685.847534,200.444748 686.438354,199.606140 
	C689.646423,195.052750 693.188354,190.734543 696.915649,185.949860 
	C699.813965,188.350571 702.458679,190.541199 705.462402,193.339905 
	C706.385559,200.398651 705.301086,201.756287 698.506653,203.450241 
	C697.617798,205.901703 696.796082,208.168167 695.974365,210.434631 
M699.757324,192.362473 
	C697.796509,193.173706 695.835632,193.984924 693.874817,194.796158 
	C694.016663,195.650620 694.158508,196.505081 694.300354,197.359528 
	C696.725464,197.657166 699.150574,197.954788 701.575684,198.252411 
	C701.155762,196.454834 700.735779,194.657272 699.757324,192.362473 
z"/>
<path fill="#130D24" opacity="1.000000" stroke="none" 
	d="
M756.827759,257.339325 
	C752.037354,252.069595 751.718201,248.257034 755.354004,243.428436 
	C758.406982,239.373901 762.702271,237.942261 766.647095,239.664383 
	C771.981689,241.993240 773.949097,247.141724 771.513367,252.398651 
	C768.766602,258.326874 763.284668,260.292480 756.827759,257.339325 
M768.944763,247.496506 
	C768.442505,244.214584 766.529053,242.300934 763.221863,242.751663 
	C759.271423,243.290070 757.026733,246.210098 756.966431,249.903061 
	C756.938171,251.629562 758.700134,254.287491 760.302795,254.953140 
	C763.779053,256.397003 766.119995,253.927246 767.770935,251.019318 
	C768.251587,250.172760 768.500488,249.194641 768.944763,247.496506 
z"/>
<path fill="#110B21" opacity="1.000000" stroke="none" 
	d="
M690.281250,181.779221 
	C692.729492,187.368790 689.956116,191.251465 686.240906,194.059036 
	C684.168579,195.625076 680.629700,196.439819 678.087402,195.927414 
	C673.827026,195.068771 671.554382,191.657013 671.724365,187.071075 
	C671.877686,182.934052 675.585449,177.930618 679.480103,177.046677 
	C683.943420,176.033646 687.674133,177.322296 690.281250,181.779221 
M684.524048,191.199646 
	C685.461853,188.723770 686.969238,186.273010 687.080078,183.760635 
	C687.130127,182.625595 683.899231,180.072845 683.027832,180.410568 
	C680.487366,181.395142 677.813416,183.125717 676.323975,185.329147 
	C675.407593,186.684830 675.851685,190.644867 676.951843,191.296432 
	C678.743713,192.357742 681.572327,191.668640 684.524048,191.199646 
z"/>
<path fill="#130D24" opacity="1.000000" stroke="none" 
	d="
M621.384155,148.027252 
	C619.889038,146.894592 618.705139,145.997223 618.367065,145.740982 
	C615.388306,145.740982 613.296631,145.740982 611.204956,145.740982 
	C611.107544,145.273087 611.010193,144.805206 610.912781,144.337311 
	C616.136719,140.990189 621.311279,137.560181 626.637878,134.385406 
	C627.435913,133.909760 629.220764,134.269379 630.049622,134.899551 
	C630.857605,135.513916 631.629333,137.143082 631.376221,138.029633 
	C629.665344,144.023010 627.678162,149.937485 624.646790,155.968384 
	C623.663025,153.399765 622.679260,150.831161 621.384155,148.027252 
M626.369995,138.909515 
	C624.250000,140.224106 622.130005,141.538681 619.650146,143.076462 
	C621.747009,144.601028 623.160095,145.628448 624.958313,146.935837 
	C625.709412,144.060394 626.364441,141.552612 627.051331,138.905075 
	C627.051331,138.905075 627.086670,138.859589 627.086670,138.859589 
	C627.086670,138.859589 627.065308,139.100449 626.369995,138.909515 
z"/>
<path fill="#110B21" opacity="1.000000" stroke="none" 
	d="
M716.949585,225.028137 
	C721.745300,222.262650 726.501404,219.365417 731.420227,216.777557 
	C732.751221,216.077332 735.037476,215.633987 736.038574,216.315842 
	C736.988525,216.962830 737.408997,219.385681 737.055847,220.771088 
	C735.673279,226.195755 733.892456,231.518890 731.809570,238.357193 
	C730.496033,236.209122 729.258423,235.103775 729.215332,233.953674 
	C729.041565,229.313324 725.705566,226.816086 720.939880,227.628433 
	C719.887085,227.807892 718.552795,226.335571 717.173767,225.295898 
	C716.999451,224.967941 716.971069,225.012680 716.949585,225.028137 
M732.332947,220.226898 
	C730.327271,221.601471 728.321594,222.976059 725.898560,224.636703 
	C727.756653,225.938095 729.259583,226.990784 731.683350,228.688370 
	C732.132812,225.073730 732.457703,222.460495 732.912842,219.776581 
	C732.912842,219.776581 732.875671,219.826752 732.332947,220.226898 
z"/>
<path fill="#130D24" opacity="1.000000" stroke="none" 
	d="
M755.003296,231.957291 
	C752.761597,231.611664 750.519897,231.266037 747.712097,230.833130 
	C744.775818,234.064514 741.219482,238.002472 737.566284,241.848465 
	C737.481140,241.938156 736.306091,240.992569 735.281616,240.281540 
	C738.512207,235.945465 741.635498,231.753418 744.383179,228.065491 
	C743.162048,225.798508 742.212280,224.035324 741.262512,222.272141 
	C741.922485,221.815628 742.582520,221.359116 743.242554,220.902603 
	C746.941284,224.482590 750.640015,228.062592 754.661499,231.819580 
	C754.984192,231.996582 755.003296,231.957291 755.003296,231.957291 
z"/>
<path fill="#110B21" opacity="1.000000" stroke="none" 
	d="
M666.292480,167.139435 
	C667.768555,165.145523 669.317688,164.387573 671.423950,166.463806 
	C673.505676,168.515930 675.761353,170.391632 678.196289,172.573776 
	C673.842224,175.935440 672.890564,169.832321 669.079834,170.402283 
	C668.757874,170.778122 667.857727,171.828781 667.020691,172.805817 
	C668.783936,175.006943 670.391113,177.013214 671.998230,179.019485 
	C671.531921,179.385010 671.065613,179.750519 670.599243,180.116028 
	C668.749695,178.858032 666.900146,177.600052 664.714661,176.113541 
	C663.042847,178.092819 661.392944,180.046143 659.005310,182.872849 
	C658.283142,181.695679 657.702942,180.749939 657.406616,179.317902 
	C660.557800,174.934219 663.425110,171.036835 666.292480,167.139435 
z"/>
<path fill="#130D24" opacity="1.000000" stroke="none" 
	d="
M600.723999,112.249039 
	C602.992615,114.674156 606.905640,115.508057 607.105896,120.732452 
	C604.397522,119.171165 602.904358,118.310417 601.012268,117.219673 
	C598.508484,120.395012 596.065308,123.728424 593.338806,126.811302 
	C592.498474,127.761505 590.885193,128.028061 589.625793,128.607651 
	C589.911560,127.210762 589.819153,125.560104 590.554138,124.464592 
	C592.761047,121.175247 595.290771,118.102486 597.833984,114.762070 
	C596.486938,113.533936 595.302673,112.454239 594.119385,111.373337 
	C595.879211,108.516121 595.879211,108.516121 600.723999,112.249039 
z"/>
<path fill="#A08FD3" opacity="1.000000" stroke="none" 
	d="
M665.921875,167.077057 
	C663.425110,171.036835 660.557800,174.934219 657.387817,178.980316 
	C655.571350,178.300903 654.057556,177.472778 652.284302,176.391800 
	C654.271301,175.072815 657.471130,174.543625 658.467896,172.773697 
	C659.291077,171.312332 657.539307,168.374298 656.854736,166.112961 
	C656.721680,165.673508 656.140625,165.383423 655.951660,164.944595 
	C655.336731,163.516571 654.702576,162.075119 654.365723,160.573792 
	C654.318298,160.362503 656.316833,159.234756 656.631531,159.479324 
	C657.946655,160.501526 658.946899,161.918472 660.128235,163.126465 
	C661.125183,164.145905 662.212769,165.076721 663.534546,165.889221 
	C664.389587,166.159348 664.970459,166.587006 665.921875,167.077057 
M660.480713,167.619980 
	C660.480713,167.619980 660.394775,167.485703 660.480713,167.619980 
z"/>
<path fill="#A08FD3" opacity="1.000000" stroke="none" 
	d="
M696.052490,210.736938 
	C696.796082,208.168167 697.617798,205.901703 698.506653,203.450241 
	C705.301086,201.756287 706.385559,200.398651 705.707520,193.546936 
	C708.250427,194.248138 710.907349,195.350418 713.564209,196.452682 
	C714.019226,196.085770 714.474182,195.718857 714.929138,195.351944 
	C714.818909,197.460648 714.708618,199.569336 714.313110,201.837097 
	C713.241028,200.268967 712.454163,198.541748 711.307922,196.025757 
	C706.833923,201.878937 703.140015,206.711609 699.194702,211.765259 
	C698.005737,211.670578 697.068237,211.354919 696.052490,210.736938 
z"/>
<path fill="#130D24" opacity="1.000000" stroke="none" 
	d="
M754.964233,232.005432 
	C756.301147,232.498566 757.658020,232.982834 759.693298,233.709198 
	C755.347290,239.342209 751.481995,244.352249 747.616699,249.362289 
	C747.035706,249.229172 746.454773,249.096039 745.873779,248.962906 
	C746.001953,247.566315 745.649353,245.839554 746.342163,244.830688 
	C749.231079,240.623611 752.434631,236.632507 755.263062,232.259735 
	C755.003296,231.957291 754.984192,231.996582 754.964233,232.005432 
z"/>
<path fill="#A08FD3" opacity="1.000000" stroke="none" 
	d="
M650.093506,162.919830 
	C651.474487,164.231491 652.657532,165.452545 653.448242,166.889496 
	C654.174255,168.208954 654.641357,169.741409 654.820007,171.228363 
	C654.853210,171.504135 652.569214,172.627792 652.054260,172.290878 
	C650.632568,171.360718 649.391418,169.991409 648.432861,168.558884 
	C647.316650,166.890808 646.575806,164.971542 645.672058,163.161285 
	C645.135681,163.295761 644.599365,163.430237 644.062988,163.564713 
	C644.801575,162.430954 645.540222,161.297211 646.602051,160.023178 
	C647.858337,160.896393 648.791443,161.909882 650.093506,162.919830 
z"/>
<path fill="#A08FD3" opacity="1.000000" stroke="none" 
	d="
M707.049194,219.275909 
	C708.122620,218.660828 709.215759,218.394333 710.693481,218.376160 
	C711.677002,219.039917 712.275879,219.455322 712.944641,219.943192 
	C713.014465,220.015656 713.153809,220.160934 713.153809,220.160934 
	C713.098083,220.437164 712.991760,220.692352 712.648621,221.018372 
	C710.612244,222.250900 708.762207,223.391510 707.068787,224.435562 
	C707.068787,223.000687 707.068787,221.312592 707.049194,219.275909 
z"/>
<path fill="#130D24" opacity="1.000000" stroke="none" 
	d="
M457.206787,350.271179 
	C458.789276,349.158356 460.371765,348.045532 462.164917,346.784576 
	C471.072479,350.488159 473.139984,353.794067 470.373138,361.663696 
	C476.891022,358.096954 482.821808,357.328217 486.755096,364.408417 
	C488.822418,368.129791 486.952209,373.634094 483.073242,376.881836 
	C479.698822,379.707153 475.030548,379.813141 471.557587,377.143127 
	C467.381805,373.932800 467.101227,370.324615 470.970154,360.864044 
	C465.480713,364.465851 461.689575,361.952789 457.935181,358.865845 
	C456.374084,360.717957 455.014282,362.331299 453.654449,363.944611 
	C453.194855,363.912872 452.735229,363.881134 452.275604,363.849396 
	C452.275604,362.418488 451.789001,360.737762 452.370331,359.605255 
	C453.880707,356.662872 455.860382,353.961426 457.390076,350.748535 
	C457.127411,350.333221 457.206787,350.271179 457.206787,350.271179 
M475.776764,375.347931 
	C480.321198,375.728912 482.269867,372.655365 483.511932,369.128082 
	C484.714355,365.713409 481.505402,361.430542 478.475189,362.660004 
	C475.908325,363.701447 473.480835,366.301270 472.149719,368.822784 
	C470.886292,371.216095 471.858551,374.046692 475.776764,375.347931 
M463.501770,351.203522 
	C462.251221,352.612762 461.000702,354.022003 459.540436,355.667572 
	C460.916321,356.699829 461.751373,357.804077 462.728058,357.948120 
	C464.227600,358.169281 465.824493,357.730225 467.380096,357.571350 
	C466.970154,356.042023 466.707703,354.448547 466.083252,353.012482 
	C465.802887,352.367737 464.798492,352.037842 463.501770,351.203522 
z"/>
<path fill="#A08FD3" opacity="1.000000" stroke="none" 
	d="
M426.406586,345.777191 
	C424.471436,344.117523 422.536316,342.457855 420.601196,340.798157 
	C420.897064,340.479034 421.192932,340.159882 421.488800,339.840759 
	C419.701538,339.355377 417.914307,338.870026 416.479858,337.999451 
	C423.778961,336.089050 424.947113,332.766296 420.626923,327.346252 
	C419.395660,325.801575 418.699799,323.830139 417.758453,322.054382 
	C418.598053,321.675995 419.950714,320.770782 420.192474,321.006256 
	C421.572693,322.350464 422.794617,323.896912 423.852692,325.516846 
	C424.454681,326.438507 424.641968,327.631073 425.016022,328.701630 
	C428.412231,323.622253 426.691101,321.059113 423.769897,319.108185 
	C421.263489,317.434235 418.550446,315.938293 415.610077,318.436493 
	C412.649628,320.951752 413.785034,323.724457 415.065125,326.910950 
	C415.448120,330.828033 415.871918,331.143616 418.491302,329.941345 
	C418.220398,331.467255 417.664246,332.723969 417.108063,333.980652 
	C415.473114,332.813721 413.585724,331.870575 412.286987,330.405579 
	C411.331940,329.328278 411.147247,327.568024 410.619293,326.112091 
	C411.029419,324.861145 411.597778,323.636566 411.811310,322.352905 
	C412.107513,320.572021 411.464508,317.881683 412.429413,317.131378 
	C414.126465,315.811676 416.750549,315.710541 418.962128,315.021118 
	C425.083527,313.112823 426.508698,318.062622 428.562958,321.565125 
	C432.577637,322.289429 436.255646,322.953003 440.395782,323.699951 
	C440.510681,328.057617 436.526337,330.466248 432.326721,332.564941 
	C432.999268,330.662384 433.967316,329.127777 435.865234,326.119110 
	C433.348419,326.665680 431.590149,326.509949 431.055298,327.244751 
	C423.680969,337.376007 421.268311,339.230957 426.406586,345.777191 
z"/>
<path fill="#130D24" opacity="1.000000" stroke="none" 
	d="
M495.656860,384.754272 
	C494.941559,387.199158 494.591797,389.444427 494.242035,391.689697 
	C493.726379,391.776703 493.210724,391.863678 492.695099,391.950684 
	C491.915314,388.238983 491.135498,384.527283 490.428986,381.164307 
	C486.441925,381.301025 486.438477,387.914276 481.794769,383.687439 
	C485.575195,378.272766 489.208740,373.068420 493.056824,367.556824 
	C497.001038,371.206299 503.385925,372.104340 502.900146,378.697998 
	C502.624786,382.435577 499.866455,384.415314 495.656860,384.754272 
M492.115753,375.605743 
	C489.713654,378.655090 492.915955,379.315430 494.405151,379.991669 
	C495.448669,380.465515 497.146667,379.498077 498.552399,379.174316 
	C498.071320,377.646790 497.940216,375.852722 497.027313,374.654114 
	C495.652985,372.849670 493.826569,372.399933 492.115753,375.605743 
z"/>
<path fill="#160F29" opacity="1.000000" stroke="none" 
	d="
M415.093994,326.510284 
	C413.785034,323.724457 412.649628,320.951752 415.610077,318.436493 
	C418.550446,315.938293 421.263489,317.434235 423.769897,319.108185 
	C426.691101,321.059113 428.412231,323.622253 425.016022,328.701630 
	C424.641968,327.631073 424.454681,326.438507 423.852692,325.516846 
	C422.794617,323.896912 421.572693,322.350464 420.192474,321.006256 
	C419.950714,320.770782 418.598053,321.675995 417.758453,322.054382 
	C418.699799,323.830139 419.395660,325.801575 420.626923,327.346252 
	C424.947113,332.766296 423.778961,336.089050 416.467896,337.624268 
	C415.580811,337.447723 415.058441,337.261200 414.088013,336.804993 
	C413.129395,336.267303 412.618835,335.999298 412.108276,335.731323 
	C410.818481,333.705505 409.528656,331.679657 408.288483,329.081482 
	C408.815948,327.605682 409.293793,326.702240 409.771637,325.798798 
	C409.771637,325.798798 410.165009,326.037781 410.392151,326.074951 
	C411.147247,327.568024 411.331940,329.328278 412.286987,330.405579 
	C413.585724,331.870575 415.473114,332.813721 417.108063,333.980652 
	C417.664246,332.723969 418.220398,331.467255 418.345032,329.659241 
	C416.973694,328.242035 416.033844,327.376160 415.093994,326.510284 
z"/>
<path fill="#110B21" opacity="1.000000" stroke="none" 
	d="
M456.908813,349.950897 
	C457.206787,350.271179 457.127411,350.333221 457.151306,350.322998 
	C452.485382,352.881683 447.919312,353.903473 444.402466,349.469635 
	C441.953583,350.820282 439.862885,351.973419 437.407104,352.675262 
	C440.412842,346.975159 443.783691,341.726288 447.154510,336.477448 
	C455.844391,339.778168 457.842865,342.557922 456.908813,349.950897 
M447.252808,347.281158 
	C449.023804,347.676636 450.785095,348.228394 452.573792,348.339417 
	C452.943878,348.362396 454.005188,346.334198 453.740540,345.955750 
	C452.460297,344.125000 450.836334,342.534637 449.334198,340.859039 
	C448.832306,341.017792 448.330383,341.176544 447.828491,341.335297 
	C447.423279,343.186310 447.018066,345.037354 447.252808,347.281158 
z"/>
<path fill="#130D24" opacity="1.000000" stroke="none" 
	d="
M426.739197,345.900116 
	C421.268311,339.230957 423.680969,337.376007 431.055298,327.244751 
	C431.590149,326.509949 433.348419,326.665680 435.865234,326.119110 
	C433.967316,329.127777 432.999268,330.662384 431.953552,332.530334 
	C431.875916,332.863708 431.901703,332.882874 431.596039,333.049561 
	C430.353638,334.561859 428.941254,335.798523 428.601837,337.280884 
	C428.187805,339.089172 428.675140,341.103851 428.772614,343.029266 
	C430.644012,342.927643 432.515411,342.826050 434.386810,342.724426 
	C434.386810,342.724426 434.607880,342.586761 434.845367,342.351929 
	C435.288544,341.895355 435.379486,341.633698 435.355682,341.332092 
	C435.355682,341.332092 435.062195,341.102539 435.476990,341.061920 
	C436.273560,340.355713 436.655304,339.690125 437.037048,339.024567 
	C437.037048,339.024567 437.000000,339.000000 437.298798,338.900330 
	C438.224274,337.770630 438.850952,336.740570 439.477661,335.710510 
	C439.477661,335.710510 439.600220,335.559418 439.893799,335.258484 
	C441.776611,332.870728 443.344879,331.375671 444.779541,335.050781 
	C442.110535,338.850250 439.490723,342.579681 436.870911,346.309143 
	C433.532990,348.663239 430.272247,348.375763 426.739197,345.900116 
z"/>
<path fill="#130D24" opacity="1.000000" stroke="none" 
	d="
M507.587097,385.141479 
	C507.078766,383.052338 506.341919,381.270081 505.386200,378.958405 
	C506.865784,376.522186 506.865784,376.522186 518.299255,385.609894 
	C516.599731,388.108582 516.599731,388.108582 512.438965,385.717224 
	C509.058380,389.815216 505.682159,393.934265 502.203674,397.965057 
	C502.120728,398.061188 500.893341,397.169769 499.779724,396.478027 
	C502.377380,392.697632 504.867981,389.073029 507.587097,385.141479 
z"/>
<path fill="#A08FD3" opacity="1.000000" stroke="none" 
	d="
M436.888550,346.709930 
	C439.490723,342.579681 442.110535,338.850250 444.779541,335.050781 
	C443.344879,331.375671 441.776611,332.870728 439.944336,335.175415 
	C439.754028,329.222748 439.971100,329.153412 448.189148,332.868805 
	C447.835114,333.830780 447.473907,334.812286 447.133606,336.135620 
	C443.783691,341.726288 440.412842,346.975159 437.094574,352.578491 
	C432.577362,351.178040 438.159149,349.002960 436.888550,346.709930 
z"/>
<path fill="#A08FD3" opacity="1.000000" stroke="none" 
	d="
M434.051392,342.507568 
	C432.515411,342.826050 430.644012,342.927643 428.772614,343.029266 
	C428.675140,341.103851 428.187805,339.089172 428.601837,337.280884 
	C428.941254,335.798523 430.353638,334.561859 431.586090,333.052490 
	C431.861206,334.167694 432.357208,335.850372 431.728882,336.654358 
	C429.257782,339.816254 431.028656,341.135895 434.051392,342.507568 
z"/>
<path fill="#A08FD3" opacity="1.000000" stroke="none" 
	d="
M409.700500,325.401398 
	C409.293793,326.702240 408.815948,327.605682 408.200043,328.745544 
	C406.825470,328.981934 405.588959,328.981934 404.353455,328.981934 
	C404.230438,323.916412 404.924988,323.395905 409.700500,325.401398 
z"/>
<path fill="#A08FD3" opacity="1.000000" stroke="none" 
	d="
M439.118530,335.548065 
	C438.850952,336.740570 438.224274,337.770630 437.311920,338.918396 
	C437.603943,337.819244 438.181641,336.602448 439.118530,335.548065 
z"/>
<path fill="#A08FD3" opacity="1.000000" stroke="none" 
	d="
M436.695251,339.066772 
	C436.655304,339.690125 436.273560,340.355713 435.634460,341.161499 
	C435.702576,340.570770 436.028015,339.839874 436.695251,339.066772 
z"/>
<path fill="#A08FD3" opacity="1.000000" stroke="none" 
	d="
M412.212341,336.026306 
	C412.618835,335.999298 413.129395,336.267303 413.808533,336.775360 
	C413.423523,336.784027 412.869965,336.552673 412.212341,336.026306 
z"/>
<path fill="#A08FD3" opacity="1.000000" stroke="none" 
	d="
M435.083496,341.365417 
	C435.379486,341.633698 435.288544,341.895355 434.909576,342.238647 
	C434.761292,342.039673 434.786285,341.719238 435.083496,341.365417 
z"/>
<path fill="#A08FD3" opacity="1.000000" stroke="none" 
	d="
M574.141235,990.144653 
	C572.791443,990.072449 571.838257,990.018799 570.618774,989.950073 
	C570.927673,988.585388 571.090393,987.477905 571.436951,986.431274 
	C571.892273,985.056702 572.492432,983.730042 573.030273,982.382751 
	C573.532776,982.378540 574.035339,982.374268 574.537842,982.370056 
	C574.537842,984.967773 574.537842,987.565491 574.141235,990.144653 
z"/>
<path fill="#AA9AE0" opacity="1.000000" stroke="none" 
	d="
M594.253052,986.543579 
	C592.423462,986.824280 590.976562,986.922241 589.010132,987.055359 
	C588.922974,985.106140 588.846375,983.393250 588.724182,980.659973 
	C591.179626,981.057129 593.321350,981.163513 595.200256,981.921448 
	C595.551819,982.063293 594.850891,984.814087 594.253052,986.543579 
z"/>
<path fill="#AA9AE0" opacity="1.000000" stroke="none" 
	d="
M441.343994,652.685059 
	C442.476379,649.407410 444.761902,647.421448 447.419159,648.860291 
	C449.426910,649.947510 451.506165,652.909790 451.543762,655.072571 
	C451.582581,657.304688 449.718842,660.617065 447.752258,661.616089 
	C443.814972,663.616333 440.875610,659.566833 441.343994,652.685059 
z"/>
<path fill="#A08FD3" opacity="1.000000" stroke="none" 
	d="
M384.245422,658.104248 
	C383.846039,655.736267 383.846039,653.370667 383.846039,651.005066 
	C384.409668,650.918457 384.973328,650.831848 385.536957,650.745300 
	C386.367493,652.896301 387.197998,655.047363 388.201111,657.645508 
	C386.740204,657.834961 385.692505,657.970764 384.245422,658.104248 
z"/>
<path fill="#A08FD3" opacity="1.000000" stroke="none" 
	d="
M718.265503,214.286194 
	C716.775757,216.184937 715.285950,218.083679 713.474976,220.071686 
	C713.153809,220.160934 713.014465,220.015656 712.997803,219.566193 
	C712.967712,218.352173 712.954285,217.587631 712.940796,216.823059 
	C714.387146,215.867340 715.833435,214.911606 717.693848,214.034943 
	C718.107910,214.114014 718.265503,214.286194 718.265503,214.286194 
z"/>
<path fill="#B098F3" opacity="1.000000" stroke="none" 
	d="
M712.655334,216.897980 
	C712.954285,217.587631 712.967712,218.352173 712.927979,219.493729 
	C712.275879,219.455322 711.677002,219.039917 711.040771,218.313248 
	C711.458984,217.658951 711.914429,217.315933 712.655334,216.897980 
z"/>
<path fill="#A08FD3" opacity="1.000000" stroke="none" 
	d="
M718.028442,214.028625 
	C718.125793,213.716110 718.302673,213.488983 718.479492,213.261841 
	C718.539307,213.523178 718.599121,213.784546 718.462219,214.166046 
	C718.265503,214.286194 718.107910,214.114014 718.028442,214.028625 
z"/>
<path fill="#A08FD3" opacity="1.000000" stroke="none" 
	d="
M612.864380,131.973419 
	C610.615906,131.193130 608.754700,130.348328 606.226074,129.200546 
	C607.932922,127.079102 609.121643,125.601669 610.434998,123.969261 
	C612.870483,126.346413 617.820740,127.438133 612.864380,131.973419 
z"/>
<path fill="#A08FD3" opacity="1.000000" stroke="none" 
	d="
M700.036560,192.611084 
	C700.735779,194.657272 701.155762,196.454834 701.575684,198.252411 
	C699.150574,197.954788 696.725464,197.657166 694.300354,197.359528 
	C694.158508,196.505081 694.016663,195.650620 693.874817,194.796158 
	C695.835632,193.984924 697.796509,193.173706 700.036560,192.611084 
z"/>
<path fill="#AA9AE0" opacity="1.000000" stroke="none" 
	d="
M768.900208,247.886673 
	C768.500488,249.194641 768.251587,250.172760 767.770935,251.019318 
	C766.119995,253.927246 763.779053,256.397003 760.302795,254.953140 
	C758.700134,254.287491 756.938171,251.629562 756.966431,249.903061 
	C757.026733,246.210098 759.271423,243.290070 763.221863,242.751663 
	C766.529053,242.300934 768.442505,244.214584 768.900208,247.886673 
z"/>
<path fill="#AA9AE0" opacity="1.000000" stroke="none" 
	d="
M684.243774,191.458923 
	C681.572327,191.668640 678.743713,192.357742 676.951843,191.296432 
	C675.851685,190.644867 675.407593,186.684830 676.323975,185.329147 
	C677.813416,183.125717 680.487366,181.395142 683.027832,180.410568 
	C683.899231,180.072845 687.130127,182.625595 687.080078,183.760635 
	C686.969238,186.273010 685.461853,188.723770 684.243774,191.458923 
z"/>
<path fill="#A08FD3" opacity="1.000000" stroke="none" 
	d="
M627.019531,139.044830 
	C626.364441,141.552612 625.709412,144.060394 624.958313,146.935837 
	C623.160095,145.628448 621.747009,144.601028 619.650146,143.076462 
	C622.130005,141.538681 624.250000,140.224106 626.709167,138.986389 
	C627.048340,139.063278 627.019531,139.044830 627.019531,139.044830 
z"/>
<path fill="#A08FD3" opacity="1.000000" stroke="none" 
	d="
M627.056824,139.081863 
	C627.065308,139.100449 627.086670,138.859589 627.086670,138.859589 
	C627.086670,138.859589 627.051331,138.905075 627.035400,138.974945 
	C627.019531,139.044830 627.048340,139.063278 627.056824,139.081863 
z"/>
<path fill="#A08FD3" opacity="1.000000" stroke="none" 
	d="
M732.782593,219.847244 
	C732.457703,222.460495 732.132812,225.073730 731.683350,228.688370 
	C729.259583,226.990784 727.756653,225.938095 725.898560,224.636703 
	C728.321594,222.976059 730.327271,221.601471 732.584595,220.048843 
	C732.836243,219.870789 732.782593,219.847244 732.782593,219.847244 
z"/>
<path fill="#A08FD3" opacity="1.000000" stroke="none" 
	d="
M732.855957,219.848770 
	C732.875671,219.826752 732.912842,219.776581 732.847717,219.811920 
	C732.782593,219.847244 732.836243,219.870789 732.855957,219.848770 
z"/>
<path fill="#B098F3" opacity="1.000000" stroke="none" 
	d="
M660.437744,167.552841 
	C660.394775,167.485703 660.480713,167.619980 660.437744,167.552841 
z"/>
<path fill="#AA9AE0" opacity="1.000000" stroke="none" 
	d="
M475.425232,375.232697 
	C471.858551,374.046692 470.886292,371.216095 472.149719,368.822784 
	C473.480835,366.301270 475.908325,363.701447 478.475189,362.660004 
	C481.505402,361.430542 484.714355,365.713409 483.511932,369.128082 
	C482.269867,372.655365 480.321198,375.728912 475.425232,375.232697 
z"/>
<path fill="#AA9AE0" opacity="1.000000" stroke="none" 
	d="
M463.812195,351.384308 
	C464.798492,352.037842 465.802887,352.367737 466.083252,353.012482 
	C466.707703,354.448547 466.970154,356.042023 467.380096,357.571350 
	C465.824493,357.730225 464.227600,358.169281 462.728058,357.948120 
	C461.751373,357.804077 460.916321,356.699829 459.540436,355.667572 
	C461.000702,354.022003 462.251221,352.612762 463.812195,351.384308 
z"/>
<path fill="#B198F3" opacity="1.000000" stroke="none" 
	d="
M415.065125,326.910950 
	C416.033844,327.376160 416.973694,328.242035 418.059753,329.390015 
	C415.871918,331.143616 415.448120,330.828033 415.065125,326.910950 
z"/>
<path fill="#AA9AE0" opacity="1.000000" stroke="none" 
	d="
M492.339722,375.328308 
	C493.826569,372.399933 495.652985,372.849670 497.027313,374.654114 
	C497.940216,375.852722 498.071320,377.646790 498.552399,379.174316 
	C497.146667,379.498077 495.448669,380.465515 494.405151,379.991669 
	C492.915955,379.315430 489.713654,378.655090 492.339722,375.328308 
z"/>
<path fill="#A08FD3" opacity="1.000000" stroke="none" 
	d="
M446.932831,347.084778 
	C447.018066,345.037354 447.423279,343.186310 447.828491,341.335297 
	C448.330383,341.176544 448.832306,341.017792 449.334198,340.859039 
	C450.836334,342.534637 452.460297,344.125000 453.740540,345.955750 
	C454.005188,346.334198 452.943878,348.362396 452.573792,348.339417 
	C450.785095,348.228394 449.023804,347.676636 446.932831,347.084778 
z"/>
</svg>